<svg width="20" height="20" viewBox="0 0 20 20" fill="none" xmlns="http://www.w3.org/2000/svg">
<g clip-path="url(#clip0_251_3175)">
<path d="M5.34505 7.66226C5.28848 7.71882 5.19677 7.71882 5.1402 7.66226L4.78753 7.30961C4.73096 7.25304 4.63924 7.25304 4.58268 7.30961L4.01928 7.87304C3.96272 7.9296 3.96272 8.02131 4.01928 8.07788L5.1402 9.19883C5.19677 9.2554 5.28848 9.2554 5.34505 9.19883L7.3714 7.17245C7.42796 7.11589 7.42796 7.02418 7.3714 6.96761L6.808 6.40419C6.75144 6.34762 6.65972 6.34761 6.60315 6.40418L5.34505 7.66226Z" fill="#A0A3BD"/>
<path d="M5.34505 11.4289C5.28848 11.4854 5.19677 11.4854 5.1402 11.4289L4.78753 11.0762C4.73096 11.0196 4.63924 11.0196 4.58268 11.0762L4.01928 11.6396C3.96272 11.6962 3.96272 11.7879 4.01928 11.8445L5.1402 12.9654C5.19677 13.022 5.28848 13.022 5.34505 12.9654L7.3714 10.9391C7.42796 10.8825 7.42796 10.7908 7.3714 10.7342L6.808 10.1708C6.75144 10.1142 6.65972 10.1142 6.60315 10.1708L5.34505 11.4289Z" fill="#A0A3BD"/>
<path d="M4.1201 14.9437C4.1201 14.8637 4.18495 14.7988 4.26495 14.7988H7.12614C7.20614 14.7988 7.27099 14.8637 7.27099 14.9437V15.7405C7.27099 15.8205 7.20614 15.8853 7.12614 15.8853H4.26495C4.18495 15.8853 4.1201 15.8205 4.1201 15.7405V14.9437Z" fill="#A0A3BD"/>
<path d="M8.6471 7.22883C8.6471 7.14884 8.71195 7.08398 8.79195 7.08398H12.957C13.037 7.08398 13.1018 7.14884 13.1018 7.22883V8.02565C13.1018 8.10565 13.037 8.1705 12.957 8.1705H8.79195C8.71195 8.1705 8.6471 8.10565 8.6471 8.02565V7.22883Z" fill="#A0A3BD"/>
<path d="M8.6471 10.8509C8.6471 10.7709 8.71195 10.7061 8.79195 10.7061H12.957C13.037 10.7061 13.1018 10.7709 13.1018 10.8509V11.6477C13.1018 11.7277 13.037 11.7926 12.957 11.7926H8.79195C8.71195 11.7926 8.6471 11.7277 8.6471 11.6477V10.8509Z" fill="#A0A3BD"/>
<path d="M18.0067 10.2053C17.8236 10.015 17.5199 10.0125 17.3337 10.1997L16.3552 11.1836C16.2641 11.2753 16.1077 11.2107 16.1077 11.0815V5.35277C16.1077 5.31543 16.0933 5.27953 16.0674 5.25257L12.0363 1.04465C12.009 1.01613 11.9712 1 11.9317 1H1.87434C1.79434 1 1.72949 1.06485 1.72949 1.14485V18.855C1.72949 18.935 1.79434 18.9999 1.87434 18.9999H13.8107C13.8493 18.9999 13.8863 18.9845 13.9135 18.9571L19.9459 12.8842C20.1262 12.7027 20.1285 12.4104 19.9511 12.2261L18.0067 10.2053ZM12.3049 3.25623C12.3049 3.12568 12.464 3.06175 12.5543 3.15602L13.8972 4.55774C13.9854 4.64985 13.9201 4.8028 13.7926 4.8028H12.4497C12.3697 4.8028 12.3049 4.73794 12.3049 4.65795V3.25623ZM11.2184 17.7685C11.2184 17.8485 11.1535 17.9134 11.0735 17.9134H2.96085C2.88086 17.9134 2.81601 17.8485 2.81601 17.7685V2.23136C2.81601 2.15136 2.88086 2.08651 2.96085 2.08651H11.0735C11.1535 2.08651 11.2184 2.15136 11.2184 2.23136V5.74446C11.2184 5.82446 11.2832 5.88931 11.3632 5.88931H14.8763C14.9563 5.88931 15.0212 5.95416 15.0212 6.03416V12.4654C15.0212 12.5037 15.006 12.5404 14.979 12.5675L11.2605 16.3069C11.2335 16.334 11.2184 16.3707 11.2184 16.409V17.7685ZM13.4613 17.8706C13.4341 17.898 13.3971 17.9134 13.3585 17.9134H12.4497C12.3697 17.9134 12.3049 17.8485 12.3049 17.7685V16.8572C12.3049 16.819 12.32 16.7822 12.347 16.7551L15.8226 13.2603C15.8791 13.2035 15.971 13.2034 16.0277 13.2601L16.9357 14.168C16.9921 14.2244 16.9922 14.3159 16.936 14.3725L13.4613 17.8706ZM16.7931 12.489C16.7367 12.4325 16.7365 12.341 16.7928 12.2844L17.5558 11.5172C17.6131 11.4596 17.7065 11.4604 17.7629 11.5189L18.6526 12.4436C18.7072 12.5003 18.7064 12.5902 18.651 12.6461L17.9059 13.3962C17.8493 13.4531 17.7574 13.4532 17.7007 13.3965L16.7931 12.489Z" fill="#A0A3BD"/>
</g>
<defs>
<clipPath id="clip0_251_3175">
<rect width="20" height="20" rx="0.351563" fill="white"/>
</clipPath>
</defs>
</svg>
