<svg width="46" height="46" viewBox="0 0 46 46" fill="none" xmlns="http://www.w3.org/2000/svg">
<path d="M23.115 33.0626C22.3292 33.0626 21.6775 32.4109 21.6775 31.6251V22.0417C21.6775 21.2559 22.3292 20.6042 23.115 20.6042C23.9008 20.6042 24.5525 21.2559 24.5525 22.0417V31.6251C24.5525 32.4109 23.9008 33.0626 23.115 33.0626Z" fill="#006CEC"/>
<path d="M27.7913 28.2708H18.208C17.4222 28.2708 16.7705 27.6191 16.7705 26.8333C16.7705 26.0474 17.4222 25.3958 18.208 25.3958H27.7913C28.5772 25.3958 29.2288 26.0474 29.2288 26.8333C29.2288 27.6191 28.5772 28.2708 27.7913 28.2708Z" fill="#006CEC"/>
<path d="M32.583 43.6041H13.4163C4.96384 43.6041 2.39551 41.0358 2.39551 32.5833V13.4166C2.39551 4.96409 4.96384 2.39575 13.4163 2.39575H16.2913C19.6455 2.39575 20.6997 3.48825 22.0413 5.27075L24.9163 9.10409C25.5488 9.94742 25.6447 10.0624 26.833 10.0624H32.583C41.0355 10.0624 43.6038 12.6308 43.6038 21.0833V32.5833C43.6038 41.0358 41.0355 43.6041 32.583 43.6041ZM13.4163 5.27075C6.57384 5.27075 5.27051 6.57409 5.27051 13.4166V32.5833C5.27051 39.4258 6.57384 40.7291 13.4163 40.7291H32.583C39.4255 40.7291 40.7288 39.4258 40.7288 32.5833V21.0833C40.7288 14.2408 39.4255 12.9374 32.583 12.9374H26.833C24.3797 12.9374 23.5747 12.0941 22.6163 10.8291L19.7413 6.99575C18.7447 5.67325 18.4572 5.27075 16.2913 5.27075H13.4163V5.27075Z" fill="#006CEC"/>
</svg>
