<svg width="19" height="18" viewBox="0 0 19 18" fill="none" xmlns="http://www.w3.org/2000/svg">
<path d="M4.34505 6.66275C4.28849 6.71931 4.19678 6.71931 4.14021 6.66275L3.78753 6.31009C3.73097 6.25353 3.63925 6.25353 3.58269 6.3101L3.01929 6.87352C2.96272 6.93009 2.96272 7.0218 3.01929 7.07837L4.14021 8.19932C4.19678 8.25589 4.28849 8.25589 4.34506 8.19932L6.3714 6.17294C6.42797 6.11637 6.42797 6.02466 6.37141 5.9681L5.80801 5.40467C5.75144 5.3481 5.65973 5.3481 5.60316 5.40467L4.34505 6.66275Z" fill="#A0A3BD"/>
<path d="M4.34505 10.4289C4.28849 10.4854 4.19678 10.4854 4.14021 10.4289L3.78753 10.0762C3.73097 10.0196 3.63925 10.0196 3.58269 10.0762L3.01929 10.6396C2.96272 10.6962 2.96272 10.7879 3.01929 10.8445L4.14021 11.9654C4.19678 12.022 4.28849 12.022 4.34506 11.9654L6.3714 9.93905C6.42797 9.88249 6.42797 9.79078 6.37141 9.73421L5.80801 9.17079C5.75144 9.11422 5.65973 9.11422 5.60316 9.17078L4.34505 10.4289Z" fill="#A0A3BD"/>
<path d="M3.12012 13.9437C3.12012 13.8637 3.18497 13.7988 3.26497 13.7988H6.12616C6.20615 13.7988 6.271 13.8637 6.271 13.9437V14.7405C6.271 14.8205 6.20615 14.8853 6.12616 14.8853H3.26497C3.18497 14.8853 3.12012 14.8205 3.12012 14.7405V13.9437Z" fill="#A0A3BD"/>
<path d="M7.64709 6.22932C7.64709 6.14932 7.71195 6.08447 7.79194 6.08447H11.9569C12.0369 6.08447 12.1018 6.14932 12.1018 6.22932V7.02614C12.1018 7.10613 12.0369 7.17099 11.9569 7.17099H7.79194C7.71195 7.17099 7.64709 7.10613 7.64709 7.02614V6.22932Z" fill="#A0A3BD"/>
<path d="M7.64709 9.8509C7.64709 9.77091 7.71195 9.70605 7.79194 9.70605H11.9569C12.0369 9.70605 12.1018 9.77091 12.1018 9.8509V10.6477C12.1018 10.7277 12.0369 10.7926 11.9569 10.7926H7.79194C7.71195 10.7926 7.64709 10.7277 7.64709 10.6477V9.8509Z" fill="#A0A3BD"/>
<path d="M17.0067 9.20527C16.8236 9.015 16.5199 9.01249 16.3337 9.19973L15.3552 10.1836C15.2641 10.2753 15.1077 10.2107 15.1077 10.0815V4.35277C15.1077 4.31543 15.0933 4.27953 15.0674 4.25257L11.0363 0.0446463C11.009 0.0161268 10.9712 0 10.9317 0H0.874342C0.794344 0 0.729492 0.0648513 0.729492 0.144849V17.855C0.729492 17.935 0.794344 17.9999 0.874342 17.9999H12.8107C12.8493 17.9999 12.8863 17.9845 12.9135 17.9571L18.9459 11.8842C19.1262 11.7027 19.1285 11.4104 18.9511 11.2261L17.0067 9.20527ZM11.3049 2.25623C11.3049 2.12568 11.464 2.06175 11.5543 2.15602L12.8972 3.55774C12.9854 3.64985 12.9201 3.8028 12.7926 3.8028H11.4497C11.3697 3.8028 11.3049 3.73794 11.3049 3.65795V2.25623ZM10.2184 16.7685C10.2184 16.8485 10.1535 16.9134 10.0735 16.9134H1.96085C1.88086 16.9134 1.81601 16.8485 1.81601 16.7685V1.23136C1.81601 1.15136 1.88086 1.08651 1.96085 1.08651H10.0735C10.1535 1.08651 10.2184 1.15136 10.2184 1.23136V4.74446C10.2184 4.82446 10.2832 4.88931 10.3632 4.88931H13.8763C13.9563 4.88931 14.0212 4.95416 14.0212 5.03416V11.4654C14.0212 11.5037 14.006 11.5404 13.979 11.5675L10.2605 15.3069C10.2335 15.334 10.2184 15.3707 10.2184 15.409V16.7685ZM12.4613 16.8706C12.4341 16.898 12.3971 16.9134 12.3585 16.9134H11.4497C11.3697 16.9134 11.3049 16.8485 11.3049 16.7685V15.8572C11.3049 15.819 11.32 15.7822 11.347 15.7551L14.8226 12.2603C14.8791 12.2035 14.971 12.2034 15.0277 12.2601L15.9357 13.168C15.9921 13.2244 15.9922 13.3159 15.936 13.3725L12.4613 16.8706ZM15.7931 11.489C15.7367 11.4325 15.7365 11.341 15.7928 11.2844L16.5558 10.5172C16.6131 10.4596 16.7065 10.4604 16.7629 10.5189L17.6526 11.4436C17.7072 11.5003 17.7064 11.5902 17.651 11.6461L16.9059 12.3962C16.8493 12.4531 16.7574 12.4532 16.7007 12.3965L15.7931 11.489Z" fill="#A0A3BD"/>
</svg>
