<svg width="37" height="49" viewBox="0 0 37 49" fill="none" xmlns="http://www.w3.org/2000/svg">
<path d="M25.6896 0H0.627686V49H36.3723V14.5339L23.6734 5.76509L25.6896 0ZM13.1178 20.6337H9.86697V30.2792H7.16397V20.6337H3.96614V18.3726H13.1178V20.6337ZM24.8978 18.3726H34.0495V20.6337H30.7981V30.2792H28.0957V20.6337H24.8978V18.3726ZM24.0693 18.3726L20.713 24.1847L24.2462 30.2792H21.1365L20.0586 28.1245C19.6179 27.2939 19.3345 26.6752 18.9992 25.9878H18.964C18.7163 26.6752 18.4156 27.2944 18.0452 28.1245L17.056 30.2792H13.982L17.4265 24.255L14.1053 18.3726H17.1972L18.2399 20.545C18.5925 21.2697 18.858 21.8527 19.1403 22.5244H19.1755C19.4578 21.7651 19.6871 21.2346 19.9883 20.545L20.9948 18.3726H24.0693Z" fill="#44C395"/>
<path d="M28.1984 0.0524902L26.5657 4.72351L36.3717 11.4945L28.1984 0.0524902Z" fill="#44C395"/>
</svg>
