<svg width="296" height="138" viewBox="0 0 296 138" fill="none" xmlns="http://www.w3.org/2000/svg">
<g clip-path="url(#clip0_574_5657)">
<path d="M173.862 51.5852L174.131 51.8521L174.711 51.2763V31.6361C174.932 31.5581 175.092 31.3512 175.092 31.1052C175.092 30.7933 174.838 30.5413 174.524 30.5413C174.209 30.5413 173.955 30.7933 173.955 31.1052C173.955 31.3512 174.115 31.5581 174.336 31.6361V51.1173L173.868 51.5822L173.862 51.5852Z" fill="white"/>
<path d="M178.155 27.5208C177.841 27.5208 177.587 27.7728 177.587 28.0847C177.587 28.3967 177.841 28.6486 178.155 28.6486C178.243 28.6486 178.324 28.6276 178.4 28.5916L180.5 30.6762V38.8286H183.701L183.871 38.4507H180.881V30.5202L178.669 28.3247C178.705 28.2497 178.726 28.1687 178.726 28.0817C178.726 27.7698 178.472 27.5178 178.158 27.5178" fill="white"/>
<path d="M183.717 27.608C183.717 27.296 183.463 27.0441 183.149 27.0441C182.834 27.0441 182.581 27.296 182.581 27.608C182.581 27.8539 182.741 28.0609 182.961 28.1389V34.3566H185.724L185.893 33.9787H183.339V28.1359C183.56 28.0579 183.72 27.8509 183.72 27.605" fill="white"/>
<path d="M176.009 53.7148L176.278 53.9817L177.317 52.9499L177.746 51.9991V31.6361C177.967 31.5581 178.127 31.3512 178.127 31.1052C178.127 30.7933 177.873 30.5413 177.559 30.5413C177.245 30.5413 176.991 30.7933 176.991 31.1052C176.991 31.3512 177.151 31.5581 177.372 31.6361V52.3681L176.015 53.7148H176.009Z" fill="white"/>
<path d="M174.937 52.6501L175.206 52.917L176.23 51.9002V39.1737C176.451 39.0957 176.611 38.8888 176.611 38.6428C176.611 38.3309 176.357 38.0789 176.043 38.0789C175.728 38.0789 175.475 38.3309 175.475 38.6428C175.475 38.8888 175.635 39.0957 175.855 39.1737V51.7442L174.943 52.6501H174.937Z" fill="white"/>
<path d="M160.595 51.8883C160.281 51.8883 160.027 52.1402 160.027 52.4522C160.027 52.7641 160.281 53.0161 160.595 53.0161C160.909 53.0161 161.163 52.7641 161.163 52.4522C161.163 52.3652 161.142 52.2842 161.106 52.2092L166.431 46.9242C166.507 46.9602 166.588 46.9812 166.676 46.9812C166.99 46.9812 167.244 46.7263 167.244 46.4173C167.244 46.1084 166.99 45.8535 166.676 45.8535C166.362 45.8535 166.108 46.1054 166.108 46.4173C166.108 46.5043 166.129 46.5853 166.165 46.6603L160.837 51.9453C160.761 51.9093 160.679 51.8883 160.592 51.8883" fill="white"/>
<path d="M171.343 66.1684H161.879C161.822 65.9195 161.595 65.7335 161.326 65.7335C161.012 65.7335 160.758 65.9855 160.758 66.2974C160.758 66.6094 161.012 66.8613 161.326 66.8613C161.55 66.8613 161.743 66.7323 161.837 66.5434H171.174L171.343 66.1654V66.1684Z" fill="white"/>
<path d="M169.98 69.1828H164.932C164.869 68.9399 164.648 68.7599 164.382 68.7599C164.068 68.7599 163.814 69.0118 163.814 69.3238C163.814 69.6357 164.068 69.8877 164.382 69.8877C164.612 69.8877 164.808 69.7527 164.899 69.5577H169.807L169.977 69.1798L169.98 69.1828Z" fill="white"/>
<path d="M170.664 67.6768H163.038C162.981 67.4278 162.754 67.2419 162.485 67.2419C162.171 67.2419 161.917 67.4968 161.917 67.8088C161.917 68.1207 162.171 68.3727 162.485 68.3727C162.709 68.3727 162.902 68.2437 162.996 68.0547H170.492L170.661 67.6768H170.664Z" fill="white"/>
<path d="M165.87 70.3196C165.555 70.3196 165.302 70.5715 165.302 70.8835C165.302 71.1954 165.555 71.4474 165.87 71.4474C166.121 71.4474 166.329 71.2854 166.408 71.0635H169.131L169.3 70.6855H166.402C166.32 70.4696 166.115 70.3136 165.87 70.3136" fill="white"/>
<path d="M172.788 50.5176L173.057 50.7845L173.193 50.6495V39.1708C173.413 39.0928 173.573 38.8858 173.573 38.6399C173.573 38.3279 173.32 38.076 173.005 38.076C172.691 38.076 172.437 38.3279 172.437 38.6399C172.437 38.8858 172.597 39.0928 172.818 39.1708V50.4936L172.794 50.5176H172.788Z" fill="white"/>
<path d="M162.756 51.8762C162.442 51.8762 162.188 52.1282 162.188 52.4401C162.188 52.7521 162.442 53.004 162.756 53.004C163.07 53.004 163.324 52.7521 163.324 52.4401C163.324 52.3531 163.303 52.2722 163.267 52.1972L168.375 47.1282C168.45 47.1642 168.532 47.1852 168.62 47.1852C168.934 47.1852 169.188 46.9332 169.188 46.6213C169.188 46.3093 168.934 46.0574 168.62 46.0574C168.305 46.0574 168.051 46.3093 168.051 46.6213C168.051 46.7082 168.073 46.7892 168.109 46.8642L163.001 51.9332C162.925 51.8972 162.844 51.8762 162.756 51.8762Z" fill="white"/>
<path d="M191.155 11.3722C191.234 11.5911 191.443 11.7501 191.69 11.7501C192.005 11.7501 192.259 11.4981 192.259 11.1862C192.259 10.8743 192.005 10.6223 191.69 10.6223C191.443 10.6223 191.234 10.7813 191.155 11.0002H176.953L172.443 15.0974C172.349 15.0374 172.244 14.9955 172.123 14.9955C171.784 14.9955 171.509 15.2684 171.509 15.6043C171.509 15.9403 171.784 16.2132 172.123 16.2132C172.461 16.2132 172.736 15.9403 172.736 15.6043C172.736 15.5264 172.718 15.4514 172.691 15.3854L177.107 11.3782H191.152L191.155 11.3722Z" fill="white"/>
<path d="M168.735 58.8044H160.572C160.493 58.5885 160.284 58.4325 160.04 58.4325C159.725 58.4325 159.471 58.6845 159.471 58.9964C159.471 59.3083 159.725 59.5603 160.04 59.5603C160.287 59.5603 160.499 59.4013 160.575 59.1794H168.893L169.554 58.5225L169.285 58.2556L168.732 58.8044H168.735Z" fill="white"/>
<path d="M159.434 57.4642C159.434 57.7761 159.688 58.0281 160.002 58.0281C160.244 58.0281 160.447 57.8811 160.531 57.6711H168.26L168.478 57.4552L168.209 57.1882L168.103 57.2932H160.543C160.471 57.0652 160.256 56.8973 160.002 56.8973C159.688 56.8973 159.434 57.1492 159.434 57.4612" fill="white"/>
<path d="M172.025 64.6624H161.102C161.017 64.4584 160.815 64.3145 160.576 64.3145C160.261 64.3145 160.008 64.5664 160.008 64.8783C160.008 65.1903 160.264 65.4422 160.576 65.4422C160.833 65.4422 161.05 65.2713 161.12 65.0373H171.856L172.025 64.6594V64.6624Z" fill="white"/>
<path d="M169.363 60.3106H160.637C160.562 60.0857 160.35 59.9207 160.096 59.9207C159.782 59.9207 159.528 60.1726 159.528 60.4846C159.528 60.7965 159.782 61.0485 160.096 61.0485C160.338 61.0485 160.543 60.8985 160.625 60.6855H169.514L170.624 59.5877L170.355 59.3208L169.357 60.3106H169.363Z" fill="white"/>
<path d="M171.481 30.5413C171.166 30.5413 170.913 30.7933 170.913 31.1052C170.913 31.3512 171.073 31.5581 171.293 31.6361V49.0357L171.674 49.4136V31.6391C171.895 31.5611 172.055 31.3542 172.055 31.1082C172.055 30.7963 171.801 30.5443 171.487 30.5443" fill="white"/>
<path d="M160.762 61.819C160.702 61.5731 160.478 61.3901 160.212 61.3901C159.898 61.3901 159.644 61.6421 159.644 61.954C159.644 62.266 159.898 62.5179 160.212 62.5179C160.439 62.5179 160.635 62.3829 160.726 62.191H170.153L171.707 60.6493L171.438 60.3823L169.996 61.813H160.762V61.819Z" fill="white"/>
<path d="M195.067 67.1313C194.988 66.9123 194.779 66.7534 194.532 66.7534C194.217 66.7534 193.963 67.0053 193.963 67.3172C193.963 67.6292 194.217 67.8811 194.532 67.8811C194.779 67.8811 194.988 67.7222 195.067 67.5032H217.125L216.959 67.1253H195.07L195.067 67.1313Z" fill="white"/>
<path d="M172.921 13.3158C173.259 13.3158 173.534 13.0428 173.534 12.7069C173.534 12.6529 173.516 12.6049 173.504 12.5569L176.484 9.86344H194.955C195.033 10.0824 195.242 10.2414 195.49 10.2414C195.804 10.2414 196.058 9.98642 196.058 9.67748C196.058 9.36854 195.804 9.11359 195.49 9.11359C195.242 9.11359 195.033 9.27256 194.955 9.49151H176.327L173.295 12.242C173.193 12.161 173.066 12.104 172.924 12.104C172.585 12.104 172.31 12.3769 172.31 12.7129C172.31 12.8179 172.343 12.9138 172.392 12.9978L166.235 19.5096L166.253 21.7621L163.116 24.8755V27.35C162.895 27.428 162.735 27.635 162.735 27.8809C162.735 28.1929 162.989 28.4448 163.303 28.4448C163.617 28.4448 163.871 28.1929 163.871 27.8809C163.871 27.635 163.711 27.428 163.49 27.35V25.0315L166.628 21.9151L166.61 19.6625L172.661 13.2588C172.739 13.2948 172.824 13.3188 172.918 13.3188" fill="white"/>
<path d="M194.955 8.35776C195.033 8.57672 195.242 8.73569 195.49 8.73569C195.804 8.73569 196.058 8.48374 196.058 8.1718C196.058 7.85986 195.804 7.60791 195.49 7.60791C195.242 7.60791 195.033 7.76688 194.955 7.98584H175.698L168.677 14.4796C168.586 14.4286 168.487 14.3896 168.375 14.3896C168.036 14.3896 167.761 14.6625 167.761 14.9985C167.761 15.1094 167.797 15.2054 167.849 15.2954L164.708 18.8917L164.727 21.1443L160.413 25.4274V27.35C160.193 27.428 160.033 27.635 160.033 27.8809C160.033 28.1929 160.29 28.4448 160.601 28.4448C160.912 28.4448 161.169 28.1929 161.169 27.8809C161.169 27.635 161.009 27.428 160.788 27.35V25.5804L165.104 21.2972L165.086 19.0447L168.124 15.5504C168.199 15.5833 168.281 15.6043 168.372 15.6043C168.71 15.6043 168.985 15.3314 168.985 14.9955C168.985 14.9085 168.967 14.8275 168.934 14.7525L175.852 8.36076H194.955V8.35776Z" fill="white"/>
<path d="M193.937 10.5921C193.622 10.5921 193.369 10.844 193.369 11.1559C193.369 11.4679 193.622 11.7198 193.937 11.7198C194.185 11.7198 194.393 11.5609 194.472 11.3419H200.169L201.72 12.8806C201.871 12.8506 202.022 12.8206 202.173 12.7966L200.326 10.964H194.472C194.393 10.745 194.185 10.5861 193.937 10.5861" fill="white"/>
<path d="M197.732 10.2174C197.98 10.2174 198.189 10.0584 198.267 9.83947H200.794L203.626 12.6499C203.799 12.6409 203.971 12.6349 204.143 12.6319L200.951 9.46154H198.267C198.189 9.24259 197.98 9.08362 197.732 9.08362C197.418 9.08362 197.164 9.33557 197.164 9.64751C197.164 9.95945 197.418 10.2114 197.732 10.2114" fill="white"/>
<path d="M245.709 7.52393C245.394 7.52393 245.14 7.77588 245.14 8.08782H235.483L226.494 17.0081H214.353C214.468 17.134 214.583 17.257 214.695 17.386H226.652L235.641 8.46574H245.288C245.391 8.57972 245.542 8.6547 245.712 8.6547C246.026 8.6547 246.28 8.40275 246.28 8.09081C246.28 7.77888 246.026 7.52693 245.712 7.52693" fill="white"/>
<path d="M198.267 6.44714C198.189 6.22818 197.98 6.06921 197.732 6.06921C197.418 6.06921 197.164 6.32116 197.164 6.6331C197.164 6.94504 197.418 7.19699 197.732 7.19699C197.98 7.19699 198.189 7.03802 198.267 6.81907H202.052L208.589 13.3068C208.876 13.3998 209.157 13.5048 209.439 13.6157L202.209 6.44114H198.264L198.267 6.44714Z" fill="white"/>
<path d="M156.925 54.6481C156.925 54.3361 156.671 54.0842 156.356 54.0842C156.042 54.0842 155.788 54.3361 155.788 54.6481C155.788 54.894 155.948 55.101 156.169 55.179V66.3488L166.53 76.6338H166.615L166.784 76.2558H166.684L156.544 66.1928V55.179C156.764 55.101 156.925 54.894 156.925 54.6481Z" fill="white"/>
<path d="M218.128 23.6698L218.297 24.0477H229.716L231.4 22.377C231.512 22.443 231.642 22.485 231.784 22.485C232.204 22.485 232.543 22.1461 232.543 21.7322C232.543 21.3182 232.201 20.9793 231.784 20.9793C231.367 20.9793 231.025 21.3182 231.025 21.7322C231.025 21.8701 231.068 21.9991 231.134 22.1131L229.562 23.6728H218.128V23.6698ZM231.784 21.3542C231.992 21.3542 232.165 21.5222 232.165 21.7322C232.165 21.9421 231.995 22.1101 231.784 22.1101C231.572 22.1101 231.403 21.9421 231.403 21.7322C231.403 21.5222 231.572 21.3542 231.784 21.3542Z" fill="white"/>
<path d="M156.747 31.0783H162.303C162.381 31.2972 162.59 31.4562 162.838 31.4562C163.152 31.4562 163.406 31.2042 163.406 30.8923C163.406 30.5804 163.152 30.3284 162.838 30.3284C162.59 30.3284 162.381 30.4874 162.303 30.7063H157.128V27.0891L163.584 20.6793L163.566 18.4268L168.523 13.1418C168.617 13.1988 168.719 13.2408 168.834 13.2408C169.173 13.2408 169.448 12.9678 169.448 12.6319C169.448 12.5089 169.402 12.4009 169.339 12.3049L175.224 6.85502H194.955C195.033 7.07397 195.242 7.23294 195.49 7.23294C195.804 7.23294 196.058 6.98099 196.058 6.66905C196.058 6.35711 195.804 6.10516 195.49 6.10516C195.242 6.10516 195.033 6.26413 194.955 6.48309H175.067L169.04 12.068C168.976 12.044 168.907 12.026 168.834 12.026C168.496 12.026 168.221 12.299 168.221 12.6349C168.221 12.7159 168.239 12.7909 168.266 12.8628L163.182 18.2768L163.2 20.5293L156.744 26.9391V31.0903L156.747 31.0783Z" fill="white"/>
<path d="M197.191 68.262C196.877 68.262 196.623 68.514 196.623 68.8259C196.623 69.1379 196.877 69.3898 197.191 69.3898C197.439 69.3898 197.648 69.2308 197.726 69.0119H217.79L217.623 68.634H197.726C197.648 68.415 197.439 68.256 197.191 68.256" fill="white"/>
<path d="M195.786 78.8139C196.1 78.8139 196.354 78.5619 196.354 78.25C196.354 77.9381 196.1 77.6861 195.786 77.6861C195.698 77.6861 195.617 77.7071 195.541 77.7431L194.97 77.1762H187.208L187.042 77.5541H194.813L195.272 78.01C195.236 78.085 195.215 78.166 195.215 78.253C195.215 78.5649 195.468 78.8169 195.783 78.8169" fill="white"/>
<path d="M236.266 9.9744H247.785C247.888 10.0884 248.039 10.1634 248.208 10.1634C248.523 10.1634 248.776 9.91141 248.776 9.59947C248.776 9.28753 248.523 9.03558 248.208 9.03558C247.894 9.03558 247.64 9.28753 247.64 9.59947H236.112L227.123 18.5197H215.559C215.647 18.6457 215.734 18.7687 215.816 18.8977H227.28L236.269 9.9774L236.266 9.9744Z" fill="white"/>
<path d="M198.267 12.4789C198.189 12.26 197.98 12.101 197.732 12.101C197.418 12.101 197.164 12.353 197.164 12.6649C197.164 12.9768 197.418 13.2288 197.732 13.2288C197.98 13.2288 198.189 13.0698 198.267 12.8509H199.537L200.02 13.3308C200.153 13.2858 200.286 13.2378 200.422 13.1958L199.694 12.4729H198.267V12.4789Z" fill="white"/>
<path d="M279.712 24.3236V30.9254L285.107 36.2793V48.4599L288.102 51.4323H293.918C293.996 51.6513 294.205 51.8103 294.453 51.8103C294.767 51.8103 295.021 51.5583 295.021 51.2464C295.021 50.9344 294.767 50.6825 294.453 50.6825C294.205 50.6825 293.996 50.8415 293.918 51.0604H288.259L285.488 48.31V36.1293L280.093 30.7754V24.3296C280.313 24.2517 280.474 24.0447 280.474 23.7988C280.474 23.4868 280.22 23.2349 279.905 23.2349C279.591 23.2349 279.337 23.4868 279.337 23.7988C279.337 24.0447 279.497 24.2517 279.718 24.3296" fill="white"/>
<path d="M269.72 23.1834C269.406 23.1834 269.152 23.4354 269.152 23.7473C269.152 24.0592 269.406 24.3112 269.72 24.3112C269.808 24.3112 269.889 24.2902 269.965 24.2542L271.963 26.2398V43.4594C271.742 43.5374 271.582 43.7444 271.582 43.9903C271.582 44.3023 271.836 44.5542 272.15 44.5542C272.465 44.5542 272.718 44.3023 272.718 43.9903C272.718 43.7444 272.558 43.5374 272.338 43.4594V26.0838L270.228 23.9903C270.264 23.9153 270.285 23.8343 270.285 23.7473C270.285 23.4354 270.031 23.1834 269.717 23.1834" fill="white"/>
<path d="M268.528 58.292C268.843 58.292 269.097 58.0401 269.097 57.7281C269.097 57.4162 268.843 57.1642 268.528 57.1642C268.441 57.1642 268.359 57.1852 268.284 57.2212L261.77 50.7575V28.4239H266.854C266.933 28.6428 267.141 28.8018 267.389 28.8018C267.703 28.8018 267.957 28.5498 267.957 28.2379C267.957 27.926 267.703 27.674 267.389 27.674C267.141 27.674 266.933 27.833 266.854 28.0519H261.389V50.9135L268.015 57.4882C267.978 57.5632 267.957 57.6441 267.957 57.7311C267.957 58.0431 268.211 58.295 268.525 58.295" fill="white"/>
<path d="M248.065 5.93093C248.153 5.93093 248.235 5.90994 248.31 5.87394L251.635 9.1733H257.094L264.535 16.5579H270.916C270.994 16.7768 271.203 16.9358 271.451 16.9358C271.765 16.9358 272.019 16.6838 272.019 16.3719C272.019 16.0599 271.762 15.808 271.451 15.808C271.203 15.808 270.994 15.967 270.916 16.1859H264.692L257.251 8.80137H251.792L248.579 5.61299C248.616 5.53801 248.637 5.45702 248.637 5.37004C248.637 5.0581 248.383 4.80615 248.068 4.80615C247.754 4.80615 247.5 5.0581 247.5 5.37004C247.5 5.68198 247.754 5.93393 248.068 5.93393" fill="white"/>
<path d="M258.81 53.5553C258.81 53.2434 258.556 52.9915 258.242 52.9915V57.2176L263.48 62.4126H266.279C266.358 62.6316 266.566 62.7905 266.814 62.7905C267.128 62.7905 267.382 62.5386 267.382 62.2266C267.382 61.9147 267.128 61.6628 266.814 61.6628C266.566 61.6628 266.358 61.8217 266.279 62.0407H263.637L258.433 56.8757V54.0922C258.653 54.0143 258.813 53.8073 258.813 53.5613" fill="white"/>
<path d="M245.059 5.07638C245.146 5.07638 245.228 5.05538 245.304 5.01939L251.007 10.6793H256.466L263.907 18.0638H272.437C272.515 18.2828 272.724 18.4418 272.972 18.4418C273.286 18.4418 273.543 18.1898 273.543 17.8779C273.543 17.5659 273.286 17.314 272.972 17.314C272.724 17.314 272.515 17.473 272.437 17.6919H264.064L256.623 10.3074H251.164L245.573 4.75844C245.609 4.68346 245.63 4.60247 245.63 4.51549C245.63 4.20355 245.376 3.9516 245.062 3.9516C244.747 3.9516 244.494 4.20355 244.494 4.51549C244.494 4.82743 244.747 5.07938 245.062 5.07938" fill="white"/>
<path d="M271.584 55.0946C271.584 55.4065 271.838 55.6585 272.152 55.6585C272.467 55.6585 272.721 55.4065 272.721 55.0946C272.721 54.8486 272.561 54.6417 272.34 54.5637V49.6267H270.254L267.268 46.6633V38.6038L269.801 36.0903C269.877 36.1263 269.958 36.1473 270.046 36.1473C270.36 36.1473 270.614 35.8954 270.614 35.5834C270.614 35.2715 270.36 35.0195 270.046 35.0195C269.731 35.0195 269.478 35.2715 269.478 35.5834C269.478 35.6704 269.499 35.7514 269.535 35.8264L266.89 38.4479V46.8222L270.1 50.0046H271.962V54.5637C271.741 54.6417 271.581 54.8486 271.581 55.0946" fill="white"/>
<path d="M267.357 97.0023H259.217C259.139 96.7833 258.93 96.6244 258.682 96.6244C258.368 96.6244 258.114 96.8763 258.114 97.1883C258.114 97.5002 258.368 97.7521 258.682 97.7521C258.93 97.7521 259.139 97.5932 259.217 97.3742H267.514L274.774 90.1696V76.2164C274.995 76.1384 275.155 75.9314 275.155 75.6855C275.155 75.3735 274.901 75.1216 274.587 75.1216C274.272 75.1216 274.018 75.3735 274.018 75.6855C274.018 75.9314 274.179 76.1384 274.399 76.2164V90.0137L267.363 96.9993L267.357 97.0023Z" fill="white"/>
<path d="M268.598 55.0946C268.51 55.0946 268.429 55.1156 268.353 55.1516L263.29 50.1276V29.9325H269.514C269.592 30.1515 269.801 30.3105 270.049 30.3105C270.363 30.3105 270.617 30.0585 270.617 29.7466C270.617 29.4346 270.363 29.1827 270.049 29.1827C269.801 29.1827 269.592 29.3416 269.514 29.5606H262.91V50.2895L268.084 55.4245C268.048 55.4995 268.027 55.5805 268.027 55.6675C268.027 55.9794 268.281 56.2314 268.595 56.2314C268.909 56.2314 269.163 55.9794 269.163 55.6675C269.163 55.3556 268.909 55.1036 268.595 55.1036" fill="white"/>
<path d="M258.24 76.4264L260.262 74.4198C260.374 74.4858 260.504 74.5248 260.646 74.5248C261.066 74.5248 261.404 74.1859 261.404 73.772C261.404 73.358 261.063 73.0191 260.646 73.0191C260.229 73.0191 259.887 73.358 259.887 73.772C259.887 73.9129 259.929 74.0389 259.996 74.1529L258.243 75.8925V76.4264H258.24ZM260.646 73.397C260.854 73.397 261.027 73.565 261.027 73.775C261.027 73.9849 260.857 74.1529 260.646 74.1529C260.434 74.1529 260.265 73.9849 260.265 73.775C260.265 73.565 260.434 73.397 260.646 73.397Z" fill="white"/>
<path d="M259.872 51.5343L269.535 61.1234C269.499 61.1984 269.478 61.2794 269.478 61.3664C269.478 61.6783 269.731 61.9303 270.046 61.9303C270.36 61.9303 270.614 61.6783 270.614 61.3664C270.614 61.0544 270.36 60.8025 270.046 60.8025C269.958 60.8025 269.877 60.8235 269.801 60.8595L260.25 51.3813V26.9181H269.511C269.589 27.1371 269.798 27.2961 270.046 27.2961C270.36 27.2961 270.614 27.0441 270.614 26.7322C270.614 26.4202 270.36 26.1683 270.046 26.1683C269.798 26.1683 269.589 26.3272 269.511 26.5462H259.869V51.5403L259.872 51.5343Z" fill="white"/>
<path d="M266.854 31.4383C266.933 31.6572 267.141 31.8162 267.389 31.8162C267.703 31.8162 267.957 31.5642 267.957 31.2523C267.957 30.9404 267.703 30.6884 267.389 30.6884C267.141 30.6884 266.933 30.8474 266.854 31.0663H264.427V49.6627L267.842 53.052C267.806 53.127 267.785 53.208 267.785 53.295C267.785 53.6069 268.039 53.8589 268.353 53.8589C268.668 53.8589 268.921 53.6069 268.921 53.295C268.921 52.9831 268.668 52.7311 268.353 52.7311C268.266 52.7311 268.184 52.7521 268.108 52.7881L264.805 49.5097V31.4443H266.851L266.854 31.4383Z" fill="white"/>
<path d="M278.381 33.5978V51.2763L284.828 57.6741H292.59C292.693 57.788 292.844 57.863 293.013 57.863C293.327 57.863 293.581 57.6111 293.581 57.2991C293.581 56.9872 293.327 56.7353 293.013 56.7353C292.699 56.7353 292.445 56.9872 292.445 57.2991H284.988L278.762 51.1203V34.0057C278.635 33.8677 278.508 33.7358 278.381 33.5978Z" fill="white"/>
<path d="M258.24 17.623H261.323C261.401 17.8419 261.61 18.0009 261.858 18.0009C262.172 18.0009 262.426 17.7489 262.426 17.437C262.426 17.1251 262.172 16.8731 261.858 16.8731C261.61 16.8731 261.401 17.0321 261.323 17.251H258.24V17.629V17.623Z" fill="white"/>
<path d="M181.847 14.9832C181.934 14.9832 182.016 14.9622 182.092 14.9262L183.654 16.4769H194.844C194.977 16.3479 195.113 16.222 195.249 16.099H183.811L182.361 14.6593C182.397 14.5843 182.418 14.5033 182.418 14.4163C182.418 14.1044 182.164 13.8524 181.85 13.8524C181.536 13.8524 181.282 14.1044 181.282 14.4163C181.282 14.7282 181.536 14.9802 181.85 14.9802" fill="white"/>
<path d="M267.986 98.5108H259.217C259.139 98.2918 258.93 98.1329 258.682 98.1329C258.368 98.1329 258.114 98.3848 258.114 98.6968C258.114 99.0087 258.368 99.2606 258.682 99.2606C258.93 99.2606 259.139 99.1017 259.217 98.8827H268.143L276.294 90.7933V74.7075C276.515 74.6295 276.675 74.4225 276.675 74.1766C276.675 73.8646 276.421 73.6127 276.107 73.6127C275.793 73.6127 275.539 73.8676 275.539 74.1766C275.539 74.4225 275.699 74.6295 275.92 74.7075V90.6373L267.992 98.5048L267.986 98.5108Z" fill="white"/>
<path d="M281.23 25.8322V30.3013L286.625 35.6553V47.8359L288.729 49.9235H293.504C293.583 50.1424 293.791 50.3014 294.039 50.3014C294.353 50.3014 294.607 50.0495 294.607 49.7375C294.607 49.4256 294.353 49.1736 294.039 49.1736C293.791 49.1736 293.583 49.3326 293.504 49.5516H288.886L287.003 47.6829V35.5023L281.608 30.1484V25.8352C281.828 25.7572 281.988 25.5503 281.988 25.3043C281.988 24.9924 281.735 24.7404 281.42 24.7404C281.106 24.7404 280.852 24.9924 280.852 25.3043C280.852 25.5503 281.012 25.7572 281.233 25.8352" fill="white"/>
<path d="M282.749 27.338V29.6745L288.145 35.0285V47.2091L289.36 48.4149H291.76C291.838 48.6338 292.047 48.7928 292.294 48.7928C292.609 48.7928 292.863 48.5408 292.863 48.2289C292.863 47.917 292.609 47.665 292.294 47.665C292.047 47.665 291.838 47.824 291.76 48.0429H289.517L288.525 47.0591V34.8785L283.13 29.5246V27.344C283.351 27.266 283.511 27.059 283.511 26.8131C283.511 26.5012 283.257 26.2492 282.943 26.2492C282.629 26.2492 282.375 26.5012 282.375 26.8131C282.375 27.059 282.535 27.266 282.755 27.344" fill="white"/>
<path d="M278.191 22.818V31.5493L283.587 36.9032V49.0838L287.471 52.9381H294.362C294.44 53.157 294.649 53.316 294.897 53.316C295.211 53.316 295.468 53.0641 295.468 52.7521C295.468 52.4402 295.214 52.1882 294.897 52.1882C294.649 52.1882 294.44 52.3472 294.362 52.5661H287.628L283.967 48.9339V36.7532L278.572 31.3993V22.824C278.793 22.746 278.953 22.539 278.953 22.2931C278.953 21.9811 278.699 21.7292 278.385 21.7292C278.071 21.7292 277.817 21.9811 277.817 22.2931C277.817 22.539 277.977 22.746 278.197 22.824" fill="white"/>
<path d="M258.24 16.1142H259.425C259.503 16.3332 259.712 16.4922 259.96 16.4922C260.274 16.4922 260.528 16.2402 260.528 15.9283C260.528 15.6163 260.274 15.3644 259.96 15.3644C259.712 15.3644 259.503 15.5233 259.425 15.7423H258.24V16.1202V16.1142Z" fill="white"/>
<path d="M294.745 56.549C295.059 56.549 295.313 56.2971 295.313 55.9852C295.313 55.6732 295.059 55.4213 294.745 55.4213C294.5 55.4213 294.292 55.5772 294.213 55.7902H285.614L280.279 50.4962V35.7211C280.152 35.5742 280.029 35.4242 279.899 35.2802V50.6552L285.457 56.1711H294.207C294.283 56.3931 294.494 56.555 294.745 56.555" fill="white"/>
<path d="M258.24 20.6373H273.591L275.344 22.377V52.5271L283.571 60.6915H294.313C294.407 60.8744 294.598 61.0034 294.821 61.0034C295.136 61.0034 295.389 60.7515 295.389 60.4395C295.389 60.1276 295.136 59.8756 294.821 59.8756C294.549 59.8756 294.323 60.0646 294.265 60.3166H283.732L275.725 52.3741V22.221L273.751 20.2624H258.243V20.6403L258.24 20.6373Z" fill="white"/>
<path d="M197.306 82.4522C197.621 82.4522 197.874 82.2003 197.874 81.8884C197.874 81.5764 197.621 81.3245 197.306 81.3245C197.219 81.3245 197.137 81.3455 197.061 81.3815L194.344 78.685H187.483L183.853 82.2873H164.173L150.475 68.6939V55.1816C150.696 55.1036 150.856 54.8966 150.856 54.6507C150.856 54.3387 150.602 54.0868 150.288 54.0868C149.974 54.0868 149.72 54.3387 149.72 54.6507C149.72 54.8966 149.88 55.1036 150.101 55.1816V68.8499L164.022 82.6652H184.016L187.646 79.0629H194.193L196.801 81.6514C196.765 81.7264 196.744 81.8074 196.744 81.8943C196.744 82.2063 196.998 82.4582 197.312 82.4582" fill="white"/>
<path d="M239.159 63.718L237.24 65.6226H237.091L237.261 66.0005H237.397L239.159 64.2489V63.718Z" fill="white"/>
<path d="M272.128 76.6245C271.88 76.6245 271.672 76.7834 271.593 77.0024H262.716L248.882 90.7307H234.253L228.755 96.1896C228.68 96.1536 228.598 96.1326 228.51 96.1326C228.196 96.1326 227.942 96.3846 227.942 96.6965C227.942 97.0085 228.196 97.2604 228.51 97.2604C228.825 97.2604 229.079 97.0085 229.079 96.6965C229.079 96.6095 229.058 96.5286 229.021 96.4536L234.41 91.1056H249.039L262.873 77.3773H271.593C271.672 77.5963 271.88 77.7552 272.128 77.7552C272.443 77.7552 272.696 77.5033 272.696 77.1913C272.696 76.8794 272.443 76.6274 272.128 76.6274" fill="white"/>
<path d="M239.159 59.1018L236.423 61.8193H235.372L235.541 62.1942H236.581L239.159 59.6357V59.1018Z" fill="white"/>
<path d="M239.158 54.8392L235.162 58.8045H234.008L234.177 59.1794H235.319L239.158 55.3731V54.8392Z" fill="white"/>
<path d="M255.214 93.6279C255.214 93.211 254.872 92.8751 254.455 92.8751C254.038 92.8751 253.696 93.214 253.696 93.6279C253.696 93.9788 253.941 94.2698 254.265 94.3538V99.3868C253.938 99.4708 253.696 99.7647 253.696 100.113C253.696 100.527 254.038 100.865 254.455 100.865C254.872 100.865 255.214 100.527 255.214 100.113C255.214 99.7617 254.969 99.4708 254.645 99.3868V94.3538C254.972 94.2698 255.214 93.9758 255.214 93.6279ZM254.833 100.113C254.833 100.32 254.664 100.491 254.452 100.491C254.24 100.491 254.071 100.323 254.071 100.113C254.071 99.9027 254.24 99.7347 254.452 99.7347C254.664 99.7347 254.833 99.9027 254.833 100.113ZM254.452 94.0028C254.243 94.0028 254.071 93.8349 254.071 93.6249C254.071 93.415 254.24 93.247 254.452 93.247C254.664 93.247 254.833 93.415 254.833 93.6249C254.833 93.8349 254.664 94.0028 254.452 94.0028Z" fill="white"/>
<path d="M155.407 54.6481C155.407 54.3361 155.153 54.0842 154.839 54.0842C154.524 54.0842 154.271 54.3361 154.271 54.6481C154.271 54.894 154.431 55.101 154.651 55.179V66.9726L165.904 78.1395H165.937L166.107 77.7615H166.058L155.029 66.8167V55.179C155.25 55.101 155.41 54.894 155.41 54.6481" fill="white"/>
<path d="M152.368 54.6477C152.368 54.3357 152.114 54.0838 151.799 54.0838C151.485 54.0838 151.231 54.3357 151.231 54.6477C151.231 54.8936 151.391 55.1006 151.612 55.1786V68.223L164.594 81.1055L164.76 80.7366L151.99 68.0641V55.1756C152.21 55.0976 152.371 54.8906 152.371 54.6447" fill="white"/>
<path d="M239.159 45.6465C239.107 45.6315 239.056 45.6135 238.999 45.6135C238.684 45.6135 238.43 45.8655 238.43 46.1774C238.43 46.4234 238.591 46.6303 238.811 46.7083V53.0521L234.537 57.2932H233.331L233.501 57.6712H234.695L239.162 53.238V45.6435L239.159 45.6465Z" fill="white"/>
<path d="M259.219 100.017C259.141 99.7979 258.932 99.6389 258.684 99.6389C258.37 99.6389 258.116 99.8908 258.116 100.203C258.116 100.515 258.37 100.767 258.684 100.767C258.932 100.767 259.141 100.608 259.219 100.389H268.773L277.814 91.4175V73.388H286.518C286.597 73.607 286.806 73.766 287.053 73.766C287.368 73.766 287.622 73.514 287.622 73.2021C287.622 72.8901 287.368 72.6382 287.053 72.6382C286.806 72.6382 286.597 72.7972 286.518 73.0161H277.436V91.2675L268.619 100.017H259.222H259.219Z" fill="white"/>
<path d="M239.158 56.9695L235.791 60.3108H234.691L234.86 60.6888H235.951L239.158 57.5034V56.9695Z" fill="white"/>
<path d="M245.771 101.687C245.771 101.999 246.025 102.251 246.339 102.251C246.654 102.251 246.908 101.999 246.908 101.687C246.908 101.441 246.747 101.234 246.527 101.156V95.6431H236.546L232.487 99.6713C232.412 99.6353 232.33 99.6143 232.242 99.6143C231.928 99.6143 231.674 99.8662 231.674 100.178C231.674 100.49 231.928 100.742 232.242 100.742C232.557 100.742 232.811 100.49 232.811 100.178C232.811 100.091 232.789 100.01 232.753 99.9352L236.701 96.018H246.146V101.153C245.925 101.231 245.765 101.438 245.765 101.684" fill="white"/>
<path d="M244.253 101.687C244.253 101.999 244.507 102.251 244.821 102.251C245.135 102.251 245.389 101.999 245.389 101.687C245.389 101.441 245.229 101.234 245.008 101.156V97.1519H237.174L236.152 98.1657C236.077 98.1297 235.995 98.1087 235.908 98.1087C235.593 98.1087 235.336 98.3607 235.336 98.6726C235.336 98.9846 235.593 99.2365 235.908 99.2365C236.222 99.2365 236.476 98.9846 236.476 98.6726C236.476 98.5856 236.455 98.5047 236.418 98.4297L237.328 97.5268H244.624V101.156C244.404 101.234 244.244 101.441 244.244 101.687" fill="white"/>
<path d="M266.268 88.1242C266.582 88.1242 266.836 87.8722 266.836 87.5603C266.836 87.2484 266.582 86.9964 266.268 86.9964C265.953 86.9964 265.699 87.2484 265.699 87.5603C265.699 87.6473 265.721 87.7283 265.757 87.8032L261.843 91.6875C261.767 91.6515 261.685 91.6305 261.598 91.6305C261.283 91.6305 261.03 91.8824 261.03 92.1944C261.03 92.5063 261.283 92.7583 261.598 92.7583C261.912 92.7583 262.166 92.5063 262.166 92.1944C262.166 92.1074 262.145 92.0264 262.109 91.9514L266.023 88.0672C266.098 88.1032 266.18 88.1242 266.268 88.1242Z" fill="white"/>
<path d="M271.597 80.3945C271.676 80.6135 271.884 80.7724 272.132 80.7724C272.446 80.7724 272.7 80.5205 272.7 80.2085C272.7 79.8966 272.446 79.6447 272.132 79.6447C271.884 79.6447 271.676 79.8036 271.597 80.0226H263.977L250.285 93.6099V97.8841C249.959 97.9681 249.717 98.262 249.717 98.6099C249.717 99.0269 250.059 99.3628 250.476 99.3628C250.893 99.3628 251.234 99.0239 251.234 98.6099C251.234 98.259 250.993 97.9681 250.666 97.8841V93.7659L264.135 80.4005H271.597V80.3945ZM250.857 98.604C250.857 98.8109 250.687 98.9819 250.476 98.9819C250.264 98.9819 250.095 98.8139 250.095 98.604C250.095 98.394 250.264 98.226 250.476 98.226C250.687 98.226 250.857 98.394 250.857 98.604Z" fill="white"/>
<path d="M227.685 99.8309C228 99.8309 228.254 99.579 228.254 99.267C228.254 98.9551 228 98.7031 227.685 98.7031C227.371 98.7031 227.117 98.9551 227.117 99.267C227.117 99.354 227.138 99.435 227.175 99.51L225.47 101.202C225.394 101.166 225.313 101.145 225.225 101.145C224.911 101.145 224.657 101.397 224.657 101.709C224.657 102.02 224.911 102.272 225.225 102.272C225.539 102.272 225.793 102.02 225.793 101.709C225.793 101.622 225.772 101.541 225.736 101.466L227.441 99.7739C227.516 99.8099 227.598 99.8309 227.685 99.8309Z" fill="white"/>
<path d="M247.288 101.688C247.288 102 247.542 102.252 247.857 102.252C248.171 102.252 248.425 102 248.425 101.688C248.425 101.442 248.265 101.235 248.044 101.157V94.1354H235.915L228.818 101.178C228.742 101.142 228.661 101.121 228.573 101.121C228.259 101.121 228.005 101.373 228.005 101.685C228.005 101.997 228.259 102.249 228.573 102.249C228.887 102.249 229.141 101.997 229.141 101.685C229.141 101.598 229.12 101.517 229.084 101.442L236.069 94.5104H247.66V101.154C247.44 101.232 247.279 101.439 247.279 101.685" fill="white"/>
<path d="M225.969 93.4481L228.985 90.4546C229.061 90.4906 229.142 90.5116 229.23 90.5116C229.544 90.5116 229.798 90.2597 229.798 89.9477C229.798 89.6358 229.544 89.3839 229.23 89.3839C228.916 89.3839 228.662 89.6358 228.662 89.9477C228.662 90.0347 228.683 90.1157 228.719 90.1907L225.814 93.0731H220.891V96.0965C220.67 96.1745 220.51 96.3815 220.51 96.6274C220.51 96.9394 220.764 97.1913 221.078 97.1913C221.393 97.1913 221.646 96.9394 221.646 96.6274C221.646 96.3815 221.486 96.1745 221.266 96.0965V93.4481H225.969Z" fill="white"/>
<path d="M266.803 85.4607C267.117 85.4607 267.371 85.2087 267.371 84.8968C267.371 84.5848 267.117 84.3329 266.803 84.3329C266.488 84.3329 266.234 84.5848 266.234 84.8968C266.234 84.9838 266.256 85.0647 266.292 85.1397L259.694 91.6874C259.618 91.6515 259.537 91.6305 259.449 91.6305C259.135 91.6305 258.881 91.8824 258.881 92.1943C258.881 92.5063 259.135 92.7582 259.449 92.7582C259.763 92.7582 260.017 92.5063 260.017 92.1943C260.017 92.1074 259.996 92.0264 259.96 91.9514L266.558 85.4037C266.633 85.4397 266.715 85.4607 266.803 85.4607Z" fill="white"/>
<path d="M268.952 87.5902C269.266 87.5902 269.52 87.3383 269.52 87.0264C269.52 86.7144 269.266 86.4625 268.952 86.4625C268.637 86.4625 268.383 86.7144 268.383 87.0264C268.383 87.1133 268.405 87.1943 268.441 87.2693L261.843 93.817C261.767 93.781 261.685 93.76 261.598 93.76C261.283 93.76 261.03 94.012 261.03 94.3239C261.03 94.6359 261.283 94.8908 261.598 94.8908C261.912 94.8908 262.166 94.6389 262.166 94.3239C262.166 94.2369 262.145 94.156 262.109 94.081L268.707 87.5333C268.782 87.5692 268.864 87.5902 268.952 87.5902Z" fill="white"/>
<path d="M263.505 78.8859H267.797C267.876 79.1049 268.084 79.2638 268.332 79.2638C268.646 79.2638 268.9 79.0119 268.9 78.6999C268.9 78.388 268.646 78.136 268.332 78.136C268.084 78.136 267.876 78.295 267.797 78.514H263.348L249.514 92.2423H234.885L232.425 94.6838C232.349 94.6478 232.267 94.6268 232.18 94.6268C231.865 94.6268 231.612 94.8788 231.612 95.1907C231.612 95.5027 231.865 95.7546 232.18 95.7546C232.494 95.7546 232.748 95.5027 232.748 95.1907C232.748 95.1037 232.727 95.0227 232.691 94.9478L235.042 92.6142H249.671L263.505 78.8859Z" fill="white"/>
<path d="M249.321 12.0469C249.636 12.0469 249.89 11.795 249.89 11.483C249.89 11.1711 249.636 10.9191 249.321 10.9191C249.152 10.9191 249.004 10.9941 248.898 11.1081H236.739L227.75 20.0283H216.452C216.515 20.1543 216.579 20.2773 216.639 20.4063H227.907L236.896 11.486H248.75C248.75 11.798 249.004 12.0499 249.318 12.0499" fill="white"/>
<path d="M149.091 52.3981H155.644L163.064 45.0346H166.673C166.752 45.2535 166.96 45.4125 167.208 45.4125C167.522 45.4125 167.776 45.1606 167.776 44.8486C167.776 44.5367 167.522 44.2847 167.208 44.2847C166.96 44.2847 166.752 44.4437 166.673 44.6627H162.907L155.487 52.0262H149.127C149.064 51.7803 148.843 51.6003 148.577 51.6003C148.263 51.6003 148.009 51.8522 148.009 52.1642C148.009 52.4761 148.263 52.7281 148.577 52.7281C148.807 52.7281 149 52.5931 149.091 52.4011" fill="white"/>
<path d="M202.163 90.1907V81.4714L208.641 75.0437H218.382V74.6658H208.483L201.786 81.3125V90.1847C201.565 90.2627 201.402 90.4697 201.402 90.7156C201.402 91.0276 201.659 91.2795 201.97 91.2795C202.281 91.2795 202.538 91.0276 202.538 90.7156C202.538 90.4697 202.381 90.2627 202.16 90.1847" fill="white"/>
<path d="M199.127 81.442V80.2212L207.384 72.0269H218.383V71.6489H207.227L198.749 80.0623V81.433C198.525 81.508 198.362 81.718 198.362 81.9669C198.362 82.2788 198.616 82.5308 198.93 82.5308C199.244 82.5308 199.498 82.2758 199.498 81.9669C199.498 81.724 199.341 81.517 199.127 81.439" fill="white"/>
<path d="M203.68 91.1089V82.0987L209.265 76.5558H218.375V76.1779H209.108L203.299 81.9427V91.0789C203.054 91.1419 202.873 91.3609 202.873 91.6248C202.873 91.9368 203.127 92.1887 203.441 92.1887C203.755 92.1887 204.009 91.9368 204.009 91.6248C204.009 91.3969 203.873 91.2019 203.677 91.1119" fill="white"/>
<path d="M198.269 84.4108C198.182 84.4108 198.1 84.4318 198.025 84.4677L193.712 80.1876H188.108L184.478 83.7899H163.541L148.951 69.3117V55.1755C149.172 55.0975 149.332 54.8905 149.332 54.6446C149.332 54.3326 149.078 54.0807 148.764 54.0807C148.45 54.0807 148.196 54.3326 148.196 54.6446C148.196 54.8905 148.356 55.0975 148.576 55.1755V69.4677L163.387 84.1648H184.641L188.271 80.5625H193.56L197.762 84.7317C197.725 84.8067 197.704 84.8877 197.704 84.9746C197.704 85.2866 197.958 85.5385 198.272 85.5385C198.587 85.5385 198.841 85.2866 198.841 84.9746C198.841 84.6627 198.587 84.4108 198.272 84.4108" fill="white"/>
<path d="M200.643 89.21V80.8446L208.009 73.535H218.379V73.1571H207.852L200.262 80.6886V89.18C200.02 89.246 199.842 89.4619 199.842 89.7229C199.842 90.0348 200.096 90.2868 200.41 90.2868C200.725 90.2868 200.979 90.0348 200.979 89.7229C200.979 89.4919 200.839 89.2939 200.64 89.207" fill="white"/>
<path d="M212.274 93.7573V88.5383L216.908 83.9402H244.857L247.314 81.5017H246.776L244.697 83.5623H216.745L211.89 88.3824V93.7573C211.67 93.8353 211.51 94.0423 211.51 94.2882C211.51 94.6001 211.763 94.8521 212.078 94.8521C212.392 94.8521 212.646 94.6001 212.646 94.2882C212.646 94.0423 212.486 93.8353 212.265 93.7573" fill="white"/>
<path d="M211.281 78.9165C211.357 78.9525 211.439 78.9735 211.526 78.9735C211.841 78.9735 212.094 78.7215 212.094 78.4096C212.094 78.0977 211.841 77.8427 211.526 77.8427C211.212 77.8427 210.958 78.0977 210.958 78.4096C210.958 78.4966 210.979 78.5776 211.015 78.6525L206.294 83.3376C206.219 83.3016 206.137 83.2806 206.049 83.2806C205.735 83.2806 205.481 83.5326 205.481 83.8445C205.481 84.1565 205.735 84.4084 206.049 84.4084C206.364 84.4084 206.618 84.1565 206.618 83.8445C206.618 83.7575 206.597 83.6766 206.56 83.6016L211.281 78.9165Z" fill="white"/>
<path d="M217.535 85.4489H245.487L249.465 81.5017H248.927L245.33 85.071H217.381L214.304 88.1244C214.229 88.0884 214.147 88.0674 214.059 88.0674C213.745 88.0674 213.491 88.3194 213.491 88.6313C213.491 88.9433 213.745 89.1952 214.059 89.1952C214.374 89.1952 214.628 88.9433 214.628 88.6313C214.628 88.5443 214.606 88.4633 214.57 88.3884L217.535 85.4429V85.4489Z" fill="white"/>
<path d="M210.757 94.2342V87.9145L216.28 82.4345H244.229L245.169 81.5017H244.631L244.071 82.0566H216.119L210.374 87.7585V94.2312C210.15 94.3092 209.99 94.5162 209.99 94.7621C209.99 95.074 210.244 95.326 210.558 95.326C210.872 95.326 211.126 95.074 211.126 94.7621C211.126 94.5162 210.969 94.3122 210.751 94.2342" fill="white"/>
<path d="M207.719 93.3161V86.6664L215.021 79.4198H222.378L222.212 79.0419H214.864L207.338 86.5104V93.2801C207.09 93.3401 206.906 93.562 206.906 93.826C206.906 94.1379 207.159 94.3899 207.474 94.3899C207.788 94.3899 208.042 94.1379 208.042 93.826C208.042 93.601 207.906 93.4061 207.713 93.3161" fill="white"/>
<path d="M167.091 38.7154C166.843 38.7154 166.635 38.8744 166.556 39.0933H158.87L154.122 43.8054H153.52C153.46 43.5594 153.236 43.3765 152.97 43.3765C152.656 43.3765 152.399 43.6284 152.399 43.9404C152.399 44.2523 152.653 44.5043 152.97 44.5043C153.197 44.5043 153.39 44.3723 153.484 44.1803H154.282L159.03 39.4712H166.562C166.641 39.6902 166.849 39.8492 167.097 39.8492C167.411 39.8492 167.665 39.5972 167.665 39.2853C167.665 38.9733 167.411 38.7214 167.097 38.7214" fill="white"/>
<path d="M153.271 29.0782C153.585 29.0782 153.839 28.8263 153.839 28.5143C153.839 28.4273 153.818 28.3463 153.781 28.2714L162.057 20.056L162.039 17.8034L165.896 13.6732C165.974 13.7092 166.062 13.7332 166.153 13.7332C166.491 13.7332 166.766 13.4603 166.766 13.1243C166.766 13.0253 166.736 12.9354 166.694 12.8544L174.591 5.34385H191.152C191.23 5.5628 191.439 5.72177 191.687 5.72177C192.001 5.72177 192.255 5.46982 192.255 5.15788C192.255 4.84595 192.001 4.59399 191.687 4.59399C191.439 4.59399 191.23 4.75296 191.152 4.97192H174.434L166.425 12.5934C166.343 12.5514 166.252 12.5214 166.153 12.5214C165.814 12.5214 165.539 12.7944 165.539 13.1303C165.539 13.2353 165.572 13.3283 165.621 13.4153L161.658 17.6534L161.676 19.906L153.512 28.0104C153.437 27.9744 153.355 27.9534 153.268 27.9534C152.953 27.9534 152.699 28.2054 152.699 28.5173C152.699 28.8293 152.953 29.0812 153.268 29.0812" fill="white"/>
<path d="M152.585 30.9823C152.585 30.9823 152.603 30.9823 152.615 30.9793L154.501 32.851H165.881V26.1803L171.421 20.6823H188.913C188.991 20.9013 189.2 21.0603 189.448 21.0603C189.762 21.0603 190.016 20.8083 190.016 20.4964C190.016 20.1844 189.762 19.9325 189.448 19.9325C189.2 19.9325 188.991 20.0915 188.913 20.3104H171.264L165.503 26.0273V32.476H154.662L152.993 30.8204C153.096 30.7184 153.159 30.5774 153.159 30.4214C153.159 30.1095 152.906 29.8576 152.591 29.8576C152.277 29.8576 152.023 30.1095 152.023 30.4214C152.023 30.7334 152.277 30.9853 152.591 30.9853" fill="white"/>
<path d="M151.888 32.4225C151.888 32.4225 151.906 32.4225 151.918 32.4195L153.87 34.3572H167.396V26.8016L172.045 22.1885H191.222L191.392 21.8106H171.887L167.015 26.6457V33.9792H154.024L152.29 32.2546C152.392 32.1526 152.456 32.0116 152.456 31.8556C152.456 31.5437 152.202 31.2918 151.888 31.2918C151.573 31.2918 151.319 31.5437 151.319 31.8556C151.319 32.1676 151.573 32.4195 151.888 32.4195" fill="white"/>
<path d="M206.7 5.9192C206.948 5.9192 207.157 5.76023 207.235 5.54127H215.042L219.618 1.00016H234.102C234.181 1.21912 234.389 1.37808 234.637 1.37808C234.951 1.37808 235.205 1.12613 235.205 0.814195C235.205 0.502256 234.951 0.250305 234.637 0.250305C234.389 0.250305 234.181 0.409274 234.102 0.628231H219.461L214.885 5.16934H207.235C207.157 4.95039 206.948 4.79142 206.7 4.79142C206.386 4.79142 206.132 5.04337 206.132 5.35531C206.132 5.66725 206.386 5.9192 206.7 5.9192Z" fill="white"/>
<path d="M149.765 49.9986C149.974 49.9986 150.155 49.8846 150.255 49.7196H154.087C154.172 50.0436 154.468 50.2835 154.819 50.2835C155.239 50.2835 155.577 49.9446 155.577 49.5307C155.577 49.1168 155.236 48.7778 154.819 48.7778C154.465 48.7778 154.172 49.0178 154.087 49.3417H150.327C150.282 49.0718 150.049 48.8678 149.768 48.8678C149.454 48.8678 149.2 49.1198 149.2 49.4317C149.2 49.7436 149.454 49.9956 149.768 49.9956M154.822 49.1498C155.03 49.1498 155.203 49.3177 155.203 49.5277C155.203 49.7376 155.033 49.9056 154.822 49.9056C154.61 49.9056 154.441 49.7376 154.441 49.5277C154.441 49.3177 154.61 49.1498 154.822 49.1498Z" fill="white"/>
<path d="M193.936 5.69432C194.184 5.69432 194.392 5.53535 194.471 5.31639H202.683L210.288 12.8629H224.763L233.748 3.94266H240.791C240.894 4.05664 241.045 4.13162 241.214 4.13162C241.528 4.13162 241.782 3.87967 241.782 3.56773C241.782 3.2558 241.528 3.00385 241.214 3.00385C240.9 3.00385 240.646 3.2558 240.646 3.56773H233.594L224.608 12.488H210.448L202.843 4.94147H194.474C194.395 4.72251 194.187 4.56354 193.939 4.56354C193.625 4.56354 193.371 4.81549 193.371 5.12743C193.371 5.43937 193.625 5.69132 193.939 5.69132" fill="white"/>
<path d="M215.927 95.0083V91.736L220.031 87.6598H240.693C240.772 87.8787 240.98 88.0377 241.228 88.0377C241.543 88.0377 241.796 87.7857 241.796 87.4738C241.796 87.1619 241.543 86.9099 241.228 86.9099C240.98 86.9099 240.772 87.0689 240.693 87.2878H219.874L215.546 91.583V95.0173C215.328 95.0983 215.174 95.3023 215.174 95.5452C215.174 95.8572 215.428 96.1091 215.745 96.1091C216.063 96.1091 216.314 95.8572 216.314 95.5452C216.314 95.2963 216.15 95.0863 215.924 95.0113" fill="white"/>
<path d="M167.09 41.7292C166.842 41.7292 166.634 41.8882 166.555 42.1072H160.126L155.378 46.8193H153.374C153.298 46.5943 153.087 46.4323 152.836 46.4323C152.522 46.4323 152.268 46.6843 152.268 46.9962C152.268 47.3082 152.522 47.5601 152.836 47.5601C153.081 47.5601 153.286 47.4071 153.368 47.1942H155.535L160.284 42.4851H166.555C166.634 42.7041 166.842 42.863 167.09 42.863C167.405 42.863 167.658 42.6111 167.658 42.2991C167.658 41.9872 167.405 41.7352 167.09 41.7352" fill="white"/>
<path d="M150.645 35.4545C150.645 35.4545 150.663 35.4545 150.675 35.4515L152.612 37.3741H170.436V28.0549L173.304 25.2055H188.907C188.985 25.4244 189.194 25.5834 189.442 25.5834C189.547 25.5834 189.644 25.5444 189.729 25.4934L189.989 24.9145C189.94 24.6536 189.72 24.4526 189.439 24.4526C189.191 24.4526 188.982 24.6116 188.904 24.8306H173.144L170.052 27.899V36.9992H152.767L151.047 35.2925C151.15 35.1905 151.213 35.0496 151.213 34.8936C151.213 34.5817 150.959 34.3297 150.645 34.3297C150.33 34.3297 150.077 34.5817 150.077 34.8936C150.077 35.2055 150.33 35.4575 150.645 35.4575" fill="white"/>
<path d="M151.239 33.9122C151.239 33.9122 151.258 33.9122 151.27 33.9092L153.24 35.8648H168.915V27.4275L172.675 23.6962H190.541L190.71 23.3183H172.518L168.534 27.2685V35.4839H153.398L151.641 33.7413C151.744 33.6393 151.808 33.4983 151.808 33.3423C151.808 33.0304 151.554 32.7784 151.239 32.7784C150.925 32.7784 150.671 33.0304 150.671 33.3423C150.671 33.6543 150.925 33.9062 151.239 33.9062" fill="white"/>
<path d="M167.089 40.2206C166.842 40.2206 166.633 40.3796 166.554 40.5986H159.497L154.749 45.3106H153.425C153.355 45.0767 153.138 44.9057 152.881 44.9057C152.566 44.9057 152.312 45.1577 152.312 45.4696C152.312 45.7816 152.566 46.0335 152.881 46.0335C153.116 46.0335 153.322 45.8895 153.407 45.6826H154.906L159.654 40.9735H166.554C166.633 41.1925 166.842 41.3514 167.089 41.3514C167.404 41.3514 167.658 41.0995 167.658 40.7875C167.658 40.4756 167.404 40.2236 167.089 40.2236" fill="white"/>
<path d="M257.749 129.591V109.27H250.501V126.168C250.281 126.246 250.12 126.453 250.12 126.699C250.12 127.011 250.377 127.263 250.692 127.263C251.006 127.263 251.26 127.008 251.26 126.699C251.26 126.453 251.1 126.246 250.879 126.168V109.648H257.368V129.591C257.148 129.669 256.988 129.876 256.988 130.122C256.988 130.434 257.241 130.686 257.556 130.686C257.87 130.686 258.124 130.434 258.124 130.122C258.124 129.876 257.964 129.669 257.743 129.591" fill="white"/>
<path d="M270.34 104.86C270.092 104.86 269.884 105.019 269.805 105.238H245.613V119.494C245.392 119.572 245.232 119.779 245.232 120.025C245.232 120.337 245.486 120.589 245.8 120.589C246.115 120.589 246.368 120.337 246.368 120.025C246.368 119.779 246.208 119.572 245.988 119.494V105.616H269.802C269.881 105.835 270.089 105.994 270.337 105.994C270.651 105.994 270.905 105.742 270.905 105.43C270.905 105.118 270.651 104.866 270.337 104.866" fill="white"/>
<path d="M287.679 74.1469C287.431 74.1469 287.223 74.3059 287.144 74.5248H278.95V91.8914L269.245 101.526H259.219C259.141 101.307 258.932 101.148 258.684 101.148C258.37 101.148 258.116 101.4 258.116 101.712C258.116 102.023 258.37 102.275 258.684 102.275C258.932 102.275 259.141 102.116 259.219 101.897H269.402L279.331 92.0444V74.8968H287.144C287.223 75.1157 287.431 75.2747 287.679 75.2747C287.993 75.2747 288.247 75.0227 288.247 74.7108C288.247 74.3989 287.993 74.1469 287.679 74.1469Z" fill="white"/>
<path d="M269.138 108.361C269.138 108.049 268.884 107.797 268.57 107.797C268.322 107.797 268.114 107.956 268.035 108.175H262.567L260.264 110.461V133.718C260.043 133.796 259.883 134.003 259.883 134.249C259.883 134.561 260.14 134.813 260.451 134.813C260.763 134.813 261.02 134.561 261.02 134.249C261.02 134.003 260.86 133.796 260.639 133.718V110.617L262.718 108.553H268.029C268.107 108.772 268.316 108.931 268.564 108.931C268.878 108.931 269.132 108.679 269.132 108.367" fill="white"/>
<path d="M290.674 70.2986C290.42 70.2986 290.209 70.4636 290.133 70.6916H259.821L258.24 72.2603V72.7942L259.978 71.0695H290.142C290.224 71.2795 290.43 71.4294 290.671 71.4294C290.986 71.4294 291.24 71.1775 291.24 70.8655C291.24 70.5536 290.986 70.3016 290.671 70.3016" fill="white"/>
<path d="M269.806 112.474C269.806 112.162 269.552 111.91 269.238 111.91C268.923 111.91 268.669 112.162 268.669 112.474C268.669 112.72 268.83 112.927 269.05 113.005V132.621C268.83 132.699 268.669 132.906 268.669 133.152C268.669 133.464 268.923 133.716 269.238 133.716C269.552 133.716 269.806 133.461 269.806 133.152C269.806 132.906 269.646 132.699 269.425 132.621V113.005C269.646 112.927 269.806 112.72 269.806 112.474Z" fill="white"/>
<path d="M294.981 64.3356C294.754 64.3356 294.558 64.4675 294.467 64.6595H258.242V65.0374H294.431C294.491 65.2834 294.715 65.4664 294.981 65.4664C295.295 65.4664 295.549 65.2144 295.549 64.9025C295.549 64.5905 295.295 64.3386 294.981 64.3386" fill="white"/>
<path d="M295.432 61.4264C295.178 61.4264 294.966 61.5913 294.891 61.8193H283.1L274.205 52.992V22.8449L273.12 21.7681H258.24V22.1461H272.959L273.821 23.0009V53.151L282.94 62.1972H294.9C294.981 62.4072 295.187 62.5572 295.429 62.5572C295.743 62.5572 295.997 62.3052 295.997 61.9933C295.997 61.6813 295.743 61.4294 295.429 61.4294" fill="white"/>
<path d="M275.006 56.9482C275.006 56.5313 274.664 56.1954 274.247 56.1954C273.83 56.1954 273.488 56.5343 273.488 56.9482C273.488 57.2992 273.733 57.5901 274.057 57.6741V62.4102H277.46C277.545 62.7341 277.841 62.974 278.191 62.974C278.612 62.974 278.95 62.6351 278.95 62.2212C278.95 61.8073 278.609 61.4683 278.191 61.4683C277.838 61.4683 277.545 61.7083 277.46 62.0322H274.434V57.6711C274.761 57.5871 275.003 57.2932 275.003 56.9452M278.188 61.8433C278.397 61.8433 278.569 62.0112 278.569 62.2212C278.569 62.4312 278.4 62.5991 278.188 62.5991C277.977 62.5991 277.808 62.4312 277.808 62.2212C277.808 62.0112 277.977 61.8433 278.188 61.8433ZM274.241 57.3232C274.032 57.3232 273.86 57.1552 273.86 56.9452C273.86 56.7353 274.029 56.5673 274.241 56.5673C274.453 56.5673 274.622 56.7353 274.622 56.9452C274.622 57.1552 274.453 57.3232 274.241 57.3232Z" fill="white"/>
<path d="M293.161 68.8317C292.922 68.8317 292.72 68.9756 292.635 69.1826H259.194L258.242 70.1274V70.6613L259.351 69.5605H292.62C292.69 69.7915 292.904 69.9624 293.164 69.9624C293.478 69.9624 293.732 69.7105 293.732 69.3986C293.732 69.0866 293.478 68.8347 293.164 68.8347" fill="white"/>
<path d="M267.579 110.641C267.579 110.329 267.325 110.077 267.011 110.077C266.697 110.077 266.443 110.329 266.443 110.641C266.443 110.887 266.603 111.094 266.824 111.172V134.294C266.603 134.372 266.443 134.579 266.443 134.825C266.443 135.137 266.697 135.389 267.011 135.389C267.325 135.389 267.579 135.137 267.579 134.825C267.579 134.579 267.419 134.372 267.199 134.294V111.172C267.419 111.094 267.579 110.887 267.579 110.641Z" fill="white"/>
<path d="M294.129 67.2453C293.863 67.2453 293.639 67.4283 293.579 67.6772H258.563L258.24 67.9982V68.5321L258.72 68.0551H293.615C293.706 68.2441 293.902 68.3791 294.129 68.3791C294.443 68.3791 294.697 68.1271 294.697 67.8152C294.697 67.5033 294.443 67.2513 294.129 67.2513" fill="white"/>
<path d="M217.445 96.5975V92.3623L220.661 89.1709H223.986C224.064 89.3899 224.273 89.5489 224.521 89.5489C224.835 89.5489 225.089 89.2969 225.089 88.985C225.089 88.673 224.835 88.4211 224.521 88.4211C224.273 88.4211 224.064 88.5801 223.986 88.799H220.504L217.064 92.2123V96.6065C216.847 96.6845 216.689 96.8914 216.689 97.1344C216.689 97.4463 216.943 97.6983 217.258 97.6983C217.572 97.6983 217.826 97.4463 217.826 97.1344C217.826 96.8884 217.666 96.6785 217.442 96.6035" fill="white"/>
<path d="M244.473 115.728V107.987L242.898 106.427C242.935 106.352 242.956 106.271 242.956 106.184C242.956 105.872 242.702 105.62 242.387 105.62C242.073 105.62 241.819 105.872 241.819 106.184C241.819 106.496 242.076 106.748 242.387 106.748C242.475 106.748 242.557 106.727 242.632 106.691L244.095 108.143V115.725C243.875 115.803 243.714 116.01 243.714 116.256C243.714 116.568 243.968 116.82 244.283 116.82C244.597 116.82 244.851 116.568 244.851 116.256C244.851 116.01 244.691 115.803 244.47 115.725" fill="white"/>
<path d="M243.318 108.664C243.318 108.247 242.976 107.911 242.559 107.911C242.142 107.911 241.801 108.25 241.801 108.664C241.801 109.015 242.045 109.306 242.369 109.39V111.988C242.042 112.072 241.801 112.365 241.801 112.713C241.801 113.13 242.142 113.466 242.559 113.466C242.976 113.466 243.318 113.127 243.318 112.713C243.318 112.362 243.076 112.072 242.75 111.988V109.39C243.076 109.306 243.318 109.012 243.318 108.664ZM242.937 112.716C242.937 112.923 242.768 113.094 242.556 113.094C242.345 113.094 242.175 112.926 242.175 112.716C242.175 112.506 242.345 112.338 242.556 112.338C242.768 112.338 242.937 112.506 242.937 112.716ZM242.556 109.042C242.348 109.042 242.175 108.874 242.175 108.664C242.175 108.454 242.345 108.286 242.556 108.286C242.768 108.286 242.937 108.454 242.937 108.664C242.937 108.874 242.768 109.042 242.556 109.042Z" fill="white"/>
<path d="M247.514 122.777V107.123H265.89C265.969 107.342 266.178 107.501 266.425 107.501C266.74 107.501 266.994 107.249 266.994 106.937C266.994 106.625 266.74 106.373 266.425 106.373C266.178 106.373 265.969 106.532 265.89 106.751H247.133V122.78C246.912 122.858 246.752 123.065 246.752 123.31C246.752 123.622 247.006 123.874 247.32 123.874C247.634 123.874 247.888 123.622 247.888 123.31C247.888 123.065 247.728 122.858 247.508 122.78" fill="white"/>
<path d="M265.279 104.486C265.594 104.486 265.847 104.234 265.847 103.922C265.847 103.61 265.594 103.358 265.279 103.358C265.031 103.358 264.823 103.517 264.744 103.736H224.914L220.96 99.8129C220.997 99.7379 221.018 99.6569 221.018 99.5699C221.018 99.258 220.764 99.0031 220.449 99.0031C220.135 99.0031 219.881 99.258 219.881 99.5699C219.881 99.8819 220.135 100.134 220.449 100.134C220.537 100.134 220.619 100.113 220.694 100.077L224.76 104.111H264.747C264.826 104.33 265.034 104.489 265.282 104.489" fill="white"/>
<path d="M218.965 98.0582V92.9862L221.293 90.6767H225.506C225.585 90.8956 225.793 91.0546 226.041 91.0546C226.355 91.0546 226.609 90.8026 226.609 90.4907C226.609 90.1788 226.355 89.9268 226.041 89.9268C225.793 89.9268 225.585 90.0858 225.506 90.3047H221.136L218.588 92.8333V98.0612C218.367 98.1392 218.207 98.3462 218.207 98.5921C218.207 98.9041 218.461 99.156 218.775 99.156C219.089 99.156 219.343 98.9041 219.343 98.5921C219.343 98.3462 219.183 98.1392 218.965 98.0612" fill="white"/>
<path d="M263.129 112.474C263.129 112.162 262.876 111.91 262.561 111.91C262.247 111.91 261.993 112.162 261.993 112.474C261.993 112.72 262.153 112.927 262.374 113.005V136.013C262.153 136.091 261.993 136.298 261.993 136.544C261.993 136.856 262.247 137.108 262.561 137.108C262.876 137.108 263.129 136.856 263.129 136.544C263.129 136.298 262.969 136.091 262.749 136.013V113.005C262.969 112.927 263.129 112.72 263.129 112.474Z" fill="white"/>
<path d="M265.356 110.64C265.356 110.328 265.102 110.076 264.787 110.076C264.473 110.076 264.219 110.328 264.219 110.64C264.219 110.886 264.379 111.093 264.6 111.171V136.009C264.379 136.087 264.219 136.294 264.219 136.54C264.219 136.852 264.473 137.104 264.787 137.104C265.102 137.104 265.356 136.852 265.356 136.54C265.356 136.294 265.195 136.087 264.975 136.009V111.171C265.195 111.093 265.356 110.886 265.356 110.64Z" fill="white"/>
<path d="M259.271 127.167V107.761H248.982V126.166C248.761 126.244 248.601 126.451 248.601 126.697C248.601 127.008 248.855 127.26 249.169 127.26C249.484 127.26 249.738 127.008 249.738 126.697C249.738 126.451 249.577 126.244 249.357 126.166V108.136H258.884V127.164C258.663 127.242 258.503 127.449 258.503 127.695C258.503 128.007 258.757 128.259 259.071 128.259C259.385 128.259 259.639 128.007 259.639 127.695C259.639 127.449 259.479 127.242 259.258 127.164" fill="white"/>
<path d="M254.885 112.317C254.885 111.901 254.543 111.565 254.126 111.565C253.709 111.565 253.368 111.904 253.368 112.317C253.368 112.668 253.612 112.959 253.936 113.043V126.595C253.609 126.679 253.368 126.973 253.368 127.32C253.368 127.737 253.709 128.073 254.126 128.073C254.543 128.073 254.885 127.734 254.885 127.32C254.885 126.97 254.64 126.679 254.317 126.595V113.043C254.643 112.959 254.885 112.665 254.885 112.317ZM254.504 127.32C254.504 127.527 254.335 127.698 254.123 127.698C253.912 127.698 253.742 127.53 253.742 127.32C253.742 127.111 253.912 126.943 254.123 126.943C254.335 126.943 254.504 127.111 254.504 127.32ZM254.123 112.692C253.915 112.692 253.742 112.524 253.742 112.314C253.742 112.104 253.912 111.936 254.123 111.936C254.335 111.936 254.504 112.104 254.504 112.314C254.504 112.524 254.335 112.692 254.123 112.692Z" fill="white"/>
<path d="M230.079 4.39255C230.394 4.39255 230.647 4.1406 230.647 3.82866C230.647 3.51672 230.394 3.26477 230.079 3.26477C229.831 3.26477 229.623 3.42374 229.544 3.6427H220.718L216.142 8.18381H210.273C210.194 7.96485 209.986 7.80588 209.738 7.80588C209.423 7.80588 209.169 8.05783 209.169 8.36977C209.169 8.68171 209.423 8.93366 209.738 8.93366C209.986 8.93366 210.194 8.77469 210.273 8.55573H216.3L220.876 4.01462H229.544C229.623 4.23358 229.831 4.39255 230.079 4.39255Z" fill="white"/>
<path d="M230.877 41.2283C231.297 41.2283 231.636 40.8894 231.636 40.4754C231.636 40.0615 231.294 39.7226 230.877 39.7226C230.524 39.7226 230.23 39.9625 230.146 40.2865H225.639L225.808 40.6644H230.143C230.227 40.9883 230.524 41.2283 230.874 41.2283M230.874 40.0975C231.083 40.0975 231.255 40.2655 231.255 40.4754C231.255 40.6854 231.086 40.8534 230.874 40.8534C230.663 40.8534 230.493 40.6854 230.493 40.4754C230.493 40.2655 230.663 40.0975 230.874 40.0975Z" fill="white"/>
<path d="M232.648 52.7731H231.285L231.454 53.151H232.805L234.634 51.3363V42.941C234.855 42.863 235.015 42.656 235.015 42.4101C235.015 42.0981 234.761 41.8462 234.447 41.8462C234.132 41.8462 233.878 42.0981 233.878 42.4101C233.878 42.656 234.039 42.863 234.259 42.941V51.1804L232.654 52.7731H232.648Z" fill="white"/>
<path d="M239.16 33.8253H222.72L222.889 34.2032H239.16V33.8253Z" fill="white"/>
<path d="M239.16 32.3199H222.037L222.209 32.6949H239.16V32.3199Z" fill="white"/>
<path d="M239.158 36.8406H224.081L224.251 37.2186H239.158V36.8406Z" fill="white"/>
<path d="M234.063 56.1654L237.669 52.5871V42.941C237.889 42.863 238.05 42.656 238.05 42.4101C238.05 42.0981 237.796 41.8462 237.481 41.8462C237.167 41.8462 236.913 42.0981 236.913 42.4101C236.913 42.656 237.073 42.863 237.294 42.941V52.4311L233.909 55.7905H232.648L232.818 56.1684H234.063V56.1654Z" fill="white"/>
<path d="M236.151 51.9632V46.7112C236.372 46.6332 236.532 46.4262 236.532 46.1803C236.532 45.8683 236.278 45.6164 235.964 45.6164C235.65 45.6164 235.396 45.8683 235.396 46.1803C235.396 46.4262 235.556 46.6332 235.777 46.7112V51.8072L233.28 54.2817H231.968L232.138 54.6596H233.437L236.154 51.9632H236.151Z" fill="white"/>
<path d="M218.378 70.3551L218.287 70.1451H195.069C194.99 69.9262 194.781 69.7672 194.534 69.7672C194.219 69.7672 193.965 70.0192 193.965 70.3311C193.965 70.643 194.219 70.895 194.534 70.895C194.781 70.895 194.99 70.736 195.069 70.5171H218.381V70.3491L218.378 70.3551Z" fill="white"/>
<path d="M200.393 75.0921C200.708 75.0921 200.962 74.8402 200.962 74.5282C200.962 74.2163 200.708 73.9644 200.393 73.9644C200.145 73.9644 199.937 74.1233 199.858 74.3423H193.635V75.0261C193.408 75.1011 193.245 75.3111 193.245 75.56C193.245 75.872 193.499 76.1239 193.813 76.1239C194.128 76.1239 194.382 75.872 194.382 75.56C194.382 75.3171 194.227 75.1131 194.01 75.0321V74.7202H199.855C199.934 74.9392 200.142 75.0981 200.39 75.0981" fill="white"/>
<path d="M200.392 72.4522C200.144 72.4522 199.936 72.6112 199.857 72.8301H192.113V75.0167C191.887 75.0917 191.721 75.3017 191.721 75.5536C191.721 75.8655 191.974 76.1175 192.289 76.1175C192.603 76.1175 192.857 75.8655 192.857 75.5536C192.857 75.3137 192.706 75.1097 192.491 75.0287V73.2111H199.854C199.933 73.43 200.141 73.589 200.389 73.589C200.703 73.589 200.957 73.337 200.957 73.0251C200.957 72.7132 200.703 72.4612 200.389 72.4612" fill="white"/>
<path d="M239.159 29.3057H220.673L220.846 29.6806H239.159V29.3057Z" fill="white"/>
<path d="M226.507 6.65411H221.976L217.4 11.1952H213.31C213.232 10.9763 213.023 10.8173 212.775 10.8173C212.461 10.8173 212.207 11.0692 212.207 11.3812C212.207 11.6931 212.461 11.9451 212.775 11.9451C213.023 11.9451 213.232 11.7861 213.31 11.5671H217.557L222.133 7.02604H226.507C226.585 7.24499 226.794 7.40396 227.042 7.40396C227.356 7.40396 227.61 7.15201 227.61 6.84007C227.61 6.52813 227.356 6.27618 227.042 6.27618C226.794 6.27618 226.585 6.43515 226.507 6.65411Z" fill="white"/>
<path d="M225.235 13.9939H210.286C210.534 14.1138 210.775 14.2368 211.014 14.3718H225.392L234.381 5.45152H242.693C242.796 5.5655 242.947 5.64048 243.116 5.64048C243.431 5.64048 243.684 5.38853 243.684 5.07359C243.684 4.75866 243.431 4.5097 243.116 4.5097C242.802 4.5097 242.548 4.76166 242.548 5.07359H234.227L225.241 13.9939H225.235Z" fill="white"/>
<path d="M215.514 6.67209H208.752C208.674 6.45313 208.465 6.29416 208.217 6.29416C207.903 6.29416 207.649 6.54611 207.649 6.85805C207.649 7.16999 207.903 7.42194 208.217 7.42194C208.465 7.42194 208.674 7.26297 208.752 7.04402H215.668L220.244 2.50291H235.997C236.076 2.72186 236.284 2.88083 236.532 2.88083C236.847 2.88083 237.1 2.62888 237.1 2.31694C237.1 2.005 236.847 1.75305 236.532 1.75305C236.284 1.75305 236.076 1.91202 235.997 2.13098H220.087L215.511 6.67209H215.514Z" fill="white"/>
<path d="M228.562 5.90128C228.876 5.90128 229.13 5.64933 229.13 5.33739C229.13 5.02545 228.876 4.7735 228.562 4.7735C228.314 4.7735 228.105 4.93247 228.027 5.15142H221.347L216.771 9.69254H211.79C211.711 9.47358 211.503 9.31461 211.255 9.31461C210.941 9.31461 210.687 9.56656 210.687 9.8785C210.687 10.1904 210.944 10.4424 211.255 10.4424C211.503 10.4424 211.711 10.2834 211.79 10.0645H216.928L221.504 5.52335H228.024C228.102 5.74231 228.311 5.90128 228.559 5.90128" fill="white"/>
<path d="M247.616 85.9496C247.196 85.9496 246.857 86.2885 246.857 86.7024C246.857 87.1164 247.199 87.4553 247.616 87.4553C248.033 87.4553 248.374 87.1164 248.374 86.7024C248.374 86.5615 248.332 86.4355 248.266 86.3215L253.123 81.5015H252.585L247.997 86.0546C247.885 85.9886 247.755 85.9496 247.613 85.9496M247.613 87.0804C247.404 87.0804 247.232 86.9124 247.232 86.7024C247.232 86.4925 247.401 86.3245 247.613 86.3245C247.824 86.3245 247.994 86.4925 247.994 86.7024C247.994 86.9124 247.824 87.0804 247.613 87.0804Z" fill="white"/>
<path d="M239.158 26.2915H219.312L219.481 26.6664H239.158V26.2915Z" fill="white"/>
<path d="M239.159 15.7393H237.034C236.955 15.5204 236.747 15.3614 236.499 15.3614C236.185 15.3614 235.931 15.6133 235.931 15.9253C235.931 16.2372 236.185 16.4892 236.499 16.4892C236.747 16.4892 236.955 16.3302 237.034 16.1112H239.159V15.7333V15.7393Z" fill="white"/>
<path d="M239.159 27.7969H219.993L220.162 28.1749H239.159V27.7969Z" fill="white"/>
<path d="M239.159 21.7681H237.034C236.955 21.5492 236.747 21.3902 236.499 21.3902C236.185 21.3902 235.931 21.6421 235.931 21.9541C235.931 22.266 236.185 22.518 236.499 22.518C236.747 22.518 236.955 22.359 237.034 22.1401H239.159V21.7621V21.7681Z" fill="white"/>
<path d="M179.268 48.6399V42.944C179.488 42.866 179.649 42.6591 179.649 42.4131C179.649 42.1012 179.395 41.8492 179.08 41.8492C178.766 41.8492 178.512 42.1012 178.512 42.4131C178.512 42.6591 178.672 42.866 178.893 42.944V49.4827L179.274 48.6429L179.268 48.6399Z" fill="white"/>
<path d="M239.159 70.1126L239.132 70.1398L239.159 70.2001V70.1126Z" fill="white"/>
<path d="M255.11 16.342H243.521V77.782H255.11V16.342Z" fill="#FFF200"/>
<path d="M204.954 16.342C201.079 16.342 197.564 18.6005 195.98 22.1069L170.815 77.782H183.464L204.957 29.2425L226.363 77.782H239.099L213.934 22.1069C212.347 18.5975 208.835 16.342 204.96 16.342" fill="#FFF200"/>
<path d="M196.131 62.3919L201.143 51.0721H224.51V62.3919H196.131Z" fill="#FFF200"/>
<path d="M43.3578 32.641C41.1544 28.9937 35.0913 25.5294 28.1093 25.5294C19.1083 25.5294 14.7891 29.2666 14.7891 34.0057C14.7891 39.5666 21.4024 41.1173 29.1188 42.0292C42.5297 43.6698 55.0247 47.1342 55.0247 62.3592C55.0247 76.5794 42.3483 82.6892 28.0186 82.6892C14.8828 82.6892 4.77858 78.679 0 67.0083L10.1042 61.8133C12.9514 68.8319 20.3928 71.9333 28.2 71.9333C36.0071 71.9333 42.9891 69.2908 42.9891 62.3622C42.9891 56.3453 36.6509 53.8828 28.1063 52.974C14.9705 51.4233 2.84418 47.959 2.84418 33.6488C2.84418 20.5204 15.8893 15.1424 27.7375 15.0524C37.7511 15.0524 48.1304 17.8779 52.9996 27.7249L43.3548 32.647L43.3578 32.641Z" fill="white"/>
<path d="M118.661 17.3257V81.0452H107.548V17.3257H118.661Z" fill="white"/>
<path d="M139.606 17.326V81.0455H128.493V17.326H139.606Z" fill="white"/>
<path d="M100.039 65.2266V55.4515C100.039 50.5055 95.9979 46.4952 91.0137 46.4952V65.5175C91.0137 71.4024 86.208 76.1714 80.2778 76.1714C74.3476 76.1714 69.5419 71.4024 69.5419 65.5175V46.4952C64.5578 46.4952 60.5167 50.5055 60.5167 55.4515V65.2266C60.5167 76.0575 69.3635 84.8367 80.2778 84.8367C91.1921 84.8367 100.039 76.0575 100.039 65.2266Z" fill="white" stroke="white" stroke-width="4.77419" stroke-miterlimit="10"/>
<path d="M100.038 88.4966V65.665L91.013 72.7347V89.0185C91.013 89.0964 91.013 89.1714 91.013 89.2494C90.9254 95.7042 85.6632 100.848 79.1618 101.076C71.9199 101.331 68.1871 96.1931 68.1871 96.1931L60.519 101.571C60.519 101.571 64.2941 110.983 80.2801 110.983C96.2661 110.983 100.041 96.9399 100.041 88.4966H100.038Z" fill="white" stroke="white" stroke-width="4.77419" stroke-miterlimit="10"/>
</g>
<defs>
<clipPath id="clip0_574_5657">
<rect width="296" height="136.86" fill="white" transform="translate(0 0.247314)"/>
</clipPath>
</defs>
</svg>
