<svg width="58" height="58" viewBox="0 0 58 58" fill="none" xmlns="http://www.w3.org/2000/svg">
<circle cx="29" cy="29" r="29" fill="#E3E3E3"/>
<path d="M28.9999 32.7333C29.7383 32.7333 30.4601 32.5143 31.0741 32.1041C31.688 31.6939 32.1665 31.1108 32.4491 30.4286C32.7317 29.7464 32.8056 28.9958 32.6615 28.2716C32.5175 27.5474 32.1619 26.8822 31.6398 26.3601C31.1177 25.838 30.4525 25.4824 29.7283 25.3383C29.0041 25.1943 28.2534 25.2682 27.5713 25.5508C26.8891 25.8334 26.306 26.3119 25.8958 26.9258C25.4856 27.5398 25.2666 28.2616 25.2666 28.9999C25.2677 29.9897 25.6614 30.9387 26.3613 31.6386C27.0612 32.3384 28.0101 32.7321 28.9999 32.7333ZM28.9999 26.3333C29.5274 26.3333 30.0429 26.4897 30.4815 26.7827C30.92 27.0757 31.2618 27.4922 31.4636 27.9794C31.6654 28.4667 31.7183 29.0029 31.6154 29.5202C31.5125 30.0375 31.2585 30.5126 30.8856 30.8856C30.5126 31.2585 30.0375 31.5125 29.5202 31.6154C29.0029 31.7183 28.4667 31.6654 27.9794 31.4636C27.4922 31.2618 27.0757 30.92 26.7827 30.4815C26.4897 30.0429 26.3333 29.5274 26.3333 28.9999C26.3341 28.293 26.6153 27.6152 27.1153 27.1153C27.6152 26.6153 28.293 26.3341 28.9999 26.3333Z" fill="black"/>
<path d="M25.5291 34.8312L26.1323 34.3986C26.4767 34.5821 26.838 34.7317 27.2112 34.8456L27.3307 35.5762C27.3659 35.7948 27.4715 35.996 27.6313 36.1492C27.7912 36.3024 27.9966 36.3994 28.2165 36.4253C28.4768 36.4526 28.7383 36.4665 29 36.4669C29.264 36.4664 29.5278 36.4524 29.7904 36.4248C30.009 36.3982 30.2129 36.3011 30.3714 36.1483C30.5299 35.9955 30.6343 35.7953 30.6688 35.5778L30.7888 34.8456C31.162 34.7317 31.5234 34.5821 31.8677 34.3986L32.4704 34.8312C32.65 34.9606 32.8669 35.028 33.0882 35.0232C33.3095 35.0184 33.5233 34.9416 33.6971 34.8045C34.1057 34.4742 34.4784 34.1019 34.8091 33.6936C34.9449 33.5202 35.0206 33.3074 35.0246 33.0872C35.0286 32.867 34.9608 32.6515 34.8315 32.4733L34.3984 31.8706C34.5818 31.5262 34.7317 31.1648 34.8459 30.7917L35.5755 30.6722C35.7942 30.6374 35.9957 30.5321 36.149 30.3723C36.3024 30.2125 36.3993 30.0069 36.4251 29.7869C36.4806 29.2657 36.4806 28.7401 36.4251 28.2189V28.2141C36.3989 27.995 36.3019 27.7905 36.1488 27.6316C35.9958 27.4726 35.795 27.368 35.5771 27.3336L34.8464 27.2141C34.7322 26.8409 34.5823 26.4796 34.399 26.1352L34.8315 25.5336C34.9611 25.354 35.0286 25.1371 35.0238 24.9158C35.019 24.6944 34.9421 24.4806 34.8048 24.3069C34.6402 24.1023 34.465 23.9065 34.28 23.7202C34.0936 23.534 33.8978 23.3574 33.6933 23.1912C33.52 23.0553 33.3071 22.9797 33.087 22.9756C32.8668 22.9716 32.6513 23.0394 32.4731 23.1688L31.8699 23.6013C31.5255 23.4179 31.1642 23.2682 30.791 23.1544L30.6715 22.4237C30.6362 22.2051 30.5307 22.0039 30.3708 21.8507C30.211 21.6975 30.0055 21.6006 29.7856 21.5746C29.2625 21.5181 28.7348 21.5181 28.2117 21.5746C27.9932 21.6012 27.7893 21.6983 27.6308 21.8511C27.4723 22.0039 27.3679 22.2041 27.3333 22.4216L27.2133 23.1538C26.8401 23.2676 26.4788 23.4173 26.1344 23.6008L25.5317 23.1682C25.3523 23.0385 25.1353 22.9709 24.9139 22.9758C24.6925 22.9806 24.4788 23.0575 24.3051 23.1949C23.8955 23.5252 23.522 23.8979 23.1909 24.3069C23.055 24.4803 22.9793 24.6933 22.9752 24.9135C22.9712 25.1338 23.0391 25.3494 23.1685 25.5277L23.6016 26.1304C23.4182 26.4748 23.2684 26.8361 23.1541 27.2093L22.4235 27.3288C22.2049 27.3638 22.0037 27.4692 21.8506 27.629C21.6974 27.7888 21.6006 27.9942 21.5749 28.2141C21.5191 28.7369 21.5191 29.2641 21.5749 29.7869C21.6012 30.0058 21.6982 30.2102 21.8512 30.369C22.0041 30.5278 22.2047 30.6324 22.4224 30.6669L23.1536 30.7869C23.2678 31.16 23.4177 31.5214 23.6011 31.8658L23.1685 32.4674C23.0391 32.647 22.9717 32.8639 22.9765 33.0852C22.9813 33.3066 23.0581 33.5203 23.1952 33.6941C23.5255 34.1037 23.898 34.4773 24.3067 34.8088C24.4802 34.9451 24.6935 35.021 24.9141 35.0251C25.1348 35.0291 25.3507 34.961 25.5291 34.8312ZM24.056 33.0642L24.6677 32.2109C24.7284 32.126 24.7628 32.0251 24.7667 31.9208C24.7706 31.8166 24.7438 31.7134 24.6896 31.6242C24.4188 31.1807 24.2188 30.6978 24.0965 30.1928C24.0718 30.0909 24.0177 29.9987 23.9409 29.9274C23.864 29.8562 23.7679 29.8092 23.6645 29.7922L22.6315 29.6232C22.6107 29.4045 22.6 29.2008 22.6 29.0002C22.6 28.7997 22.6107 28.5933 22.6315 28.3778L23.6667 28.2088C23.7702 28.1919 23.8664 28.1449 23.9433 28.0737C24.0202 28.0024 24.0745 27.9101 24.0992 27.8082C24.2214 27.3032 24.4215 26.8202 24.6923 26.3768C24.7464 26.2876 24.7732 26.1844 24.7693 26.0801C24.7654 25.9759 24.7311 25.875 24.6704 25.7901L24.0587 24.9368C24.1995 24.7661 24.3371 24.6168 24.4773 24.4749C24.6176 24.333 24.7712 24.1949 24.9392 24.0562L25.7925 24.668C25.8775 24.7286 25.9783 24.763 26.0826 24.7669C26.1869 24.7708 26.29 24.744 26.3792 24.6898C26.8227 24.4194 27.3054 24.2193 27.8101 24.0968C27.912 24.0721 28.0042 24.0179 28.0755 23.9411C28.1467 23.8643 28.1937 23.7681 28.2107 23.6648L28.3803 22.6312C28.7942 22.5898 29.2112 22.5898 29.6251 22.6312L29.792 23.6669C29.809 23.7703 29.856 23.8664 29.9272 23.9432C29.9985 24.02 30.0907 24.0742 30.1925 24.0989C30.6973 24.2215 31.18 24.4215 31.6235 24.692C31.7127 24.7461 31.8158 24.7729 31.9201 24.769C32.0244 24.7651 32.1252 24.7307 32.2102 24.6701L33.0635 24.0584C33.2336 24.1992 33.3835 24.3362 33.5254 24.477C33.6672 24.6178 33.8054 24.7709 33.944 24.9384L33.3323 25.7917C33.2716 25.8766 33.2373 25.9775 33.2334 26.0817C33.2295 26.186 33.2563 26.2892 33.3104 26.3784C33.5812 26.8218 33.7813 27.3048 33.9035 27.8098C33.9282 27.9117 33.9825 28.004 34.0594 28.0753C34.1363 28.1465 34.2325 28.1935 34.336 28.2104L35.3686 28.3794C35.3894 28.597 35.4 28.8013 35.4 29.0018C35.4 29.2024 35.3894 29.4088 35.3686 29.6242L34.3334 29.7917C34.23 29.8086 34.1339 29.8557 34.057 29.9269C33.9802 29.9981 33.9261 30.0904 33.9013 30.1922C33.7791 30.6973 33.5791 31.1802 33.3083 31.6237C33.2541 31.7129 33.2273 31.816 33.2312 31.9203C33.2351 32.0246 33.2695 32.1254 33.3301 32.2104L33.9419 33.0637C33.8016 33.2333 33.6645 33.3837 33.5232 33.5256C33.3819 33.6674 33.2294 33.8056 33.0614 33.9442L32.208 33.3325C32.1233 33.2714 32.0224 33.2367 31.918 33.2328C31.8136 33.2289 31.7104 33.256 31.6214 33.3106C31.1779 33.5811 30.6952 33.7811 30.1904 33.9037C30.0886 33.9284 29.9963 33.9825 29.9251 34.0594C29.8539 34.1362 29.8068 34.2323 29.7899 34.3357L29.6203 35.3693C29.2064 35.4109 28.7894 35.4109 28.3755 35.3693L28.208 34.3336C28.1911 34.2302 28.144 34.1341 28.0728 34.0572C28.0016 33.9804 27.9093 33.9263 27.8075 33.9016C27.3027 33.779 26.82 33.5789 26.3765 33.3085C26.2875 33.2539 26.1843 33.2268 26.0799 33.2307C25.9755 33.2346 25.8746 33.2693 25.7899 33.3304L24.9365 33.9421C24.7664 33.8013 24.6165 33.6642 24.4747 33.5234C24.3328 33.3826 24.1936 33.2306 24.056 33.0642Z" fill="black"/>
<path d="M14.9033 37C15.0224 37.2003 15.1541 37.3929 15.2975 37.5765C15.1231 37.9625 15.0859 38.3966 15.1921 38.8066C15.2983 39.2166 15.5415 39.5781 15.8813 39.8309C16.2212 40.0837 16.6372 40.2128 17.0605 40.1967C17.4837 40.1806 17.8888 40.0203 18.2084 39.7424C19.5337 40.2645 20.944 40.5377 22.3684 40.5483C24.0932 43.3035 26.4292 45 28.9999 45C31.5705 45 33.9119 43.2997 35.6372 40.5413C36.6304 40.5259 37.6184 40.3936 38.5807 40.1472C38.8518 40.4447 39.2124 40.6456 39.608 40.7197C40.0036 40.7937 40.4125 40.7368 40.7728 40.5576C41.1332 40.3783 41.4252 40.0865 41.6048 39.7263C41.7843 39.3661 41.8416 38.9572 41.7679 38.5616C42.2969 38.1226 42.7462 37.5956 43.0959 37.0037C43.5428 36.188 43.8204 35.2904 43.9121 34.3648C44.0037 33.4392 43.9075 32.5046 43.6292 31.6171C43.3749 30.7052 43.0133 29.8267 42.5519 29C43.013 28.1745 43.3746 27.2973 43.6292 26.3867C43.9075 25.4991 44.0037 24.5645 43.9121 23.6389C43.8204 22.7133 43.5428 21.8157 43.0959 21C41.77 18.7451 39.0319 17.5691 35.6671 17.48C35.2438 16.7871 34.7532 16.1375 34.2025 15.5408C34.2879 15.3262 34.3322 15.0976 34.3332 14.8667C34.3332 14.3716 34.1365 13.8968 33.7865 13.5467C33.4364 13.1967 32.9616 13 32.4665 13C32.0248 13.0018 31.5983 13.1619 31.2644 13.4512C30.545 13.1587 29.7765 13.0055 28.9999 13C26.4207 13 24.0777 14.7067 22.3513 17.4757C18.978 17.5605 16.2324 18.7371 14.9039 20.9957C14.4569 21.8115 14.1793 22.709 14.0877 23.6347C13.9961 24.5603 14.0923 25.4949 14.3705 26.3824C14.6248 27.2945 14.9864 28.1732 15.4479 29C14.9867 29.8255 14.6251 30.7027 14.3705 31.6133C14.0921 32.5008 13.9957 33.4354 14.0873 34.361C14.1788 35.2867 14.4564 36.1843 14.9033 37ZM16.1999 38.3333C16.1999 38.1751 16.2468 38.0204 16.3347 37.8889C16.4226 37.7573 16.5475 37.6548 16.6937 37.5942C16.8399 37.5337 17.0008 37.5178 17.1559 37.5487C17.3111 37.5796 17.4537 37.6558 17.5656 37.7676C17.6774 37.8795 17.7536 38.0221 17.7845 38.1773C17.8154 38.3324 17.7995 38.4933 17.739 38.6395C17.6784 38.7857 17.5759 38.9106 17.4443 38.9985C17.3128 39.0864 17.1581 39.1333 16.9999 39.1333C16.7877 39.1333 16.5842 39.049 16.4342 38.899C16.2842 38.749 16.1999 38.5455 16.1999 38.3333ZM20.4665 29C20.4644 27.3841 20.6176 25.7717 20.9241 24.1851C22.0873 23.2193 23.3338 22.3585 24.6489 21.6128C26.0356 20.8242 27.4921 20.1652 28.9999 19.6443C30.5074 20.1653 31.9635 20.8244 33.3497 21.6133C34.6627 22.3574 35.907 23.2164 37.0681 24.1803C37.3788 25.768 37.5346 27.3822 37.5332 29C37.5354 30.6159 37.3822 32.2283 37.0756 33.8149C35.9125 34.7807 34.666 35.6415 33.3508 36.3872C31.9613 37.1752 30.5009 37.8309 28.9887 38.3456C27.4856 37.8274 26.0336 37.1717 24.6511 36.3867C23.3358 35.6414 22.0893 34.7807 20.9263 33.8149C20.619 32.2284 20.4651 30.616 20.4665 29ZM19.6596 32.6837C18.5068 31.5912 17.5015 30.3528 16.6692 29C17.502 27.6473 18.5076 26.4089 19.6607 25.3163C19.3144 27.7599 19.3144 30.2401 19.6607 32.6837H19.6596ZM22.9369 18.5035C24.4208 18.5397 25.895 18.7526 27.3284 19.1376C25.1851 20.0018 23.1626 21.1398 21.3113 22.5232C21.6883 21.1222 22.2345 19.7723 22.938 18.5035H22.9369ZM36.6692 22.5109C34.8228 21.1329 32.8061 19.9991 30.6692 19.1376C32.0968 18.7541 33.5648 18.5414 35.0425 18.504C35.7453 19.7688 36.2919 21.1143 36.6703 22.5109H36.6692ZM38.3332 25.3115C39.4887 26.4052 40.4963 27.6452 41.3305 29C40.4978 30.3527 39.4921 31.5911 38.3391 32.6837C38.5125 31.4635 38.5996 30.2325 38.5999 29C38.5981 27.7657 38.509 26.5332 38.3332 25.3115ZM35.0687 39.4837C33.5861 39.4505 32.1129 39.24 30.6804 38.8565C31.7781 38.4126 32.8456 37.8976 33.8761 37.3147C34.8507 36.7614 35.7896 36.1476 36.6873 35.4768C36.3121 36.8731 35.7685 38.2186 35.0687 39.4837ZM24.1236 37.3147C25.1514 37.8951 26.2161 38.4077 27.3108 38.8491C25.8779 39.2278 24.4053 39.4363 22.9236 39.4704C22.2276 38.209 21.6866 36.8681 21.3124 35.4768C22.2102 36.1476 23.1491 36.7614 24.1236 37.3147ZM28.9999 43.9333C26.9433 43.9333 25.0532 42.6533 23.5796 40.5243C25.4281 40.4116 27.2538 40.056 29.0095 39.4667C30.7611 40.0519 32.5816 40.406 34.4249 40.52C32.9492 42.6533 31.0585 43.9333 28.9999 43.9333ZM39.9332 39.6667C39.775 39.6667 39.6203 39.6197 39.4888 39.5318C39.3572 39.4439 39.2547 39.319 39.1941 39.1728C39.1336 39.0266 39.1177 38.8658 39.1486 38.7106C39.1795 38.5554 39.2556 38.4129 39.3675 38.301C39.4794 38.1891 39.622 38.1129 39.7771 38.082C39.9323 38.0512 40.0932 38.067 40.2394 38.1276C40.3855 38.1881 40.5105 38.2907 40.5984 38.4222C40.6863 38.5538 40.7332 38.7084 40.7332 38.8667C40.7332 39.0788 40.6489 39.2823 40.4989 39.4324C40.3489 39.5824 40.1454 39.6667 39.9332 39.6667ZM42.5999 31.8912C42.8402 32.6433 42.9262 33.4362 42.8529 34.2224C42.7796 35.0086 42.5484 35.7719 42.1732 36.4667C41.9303 36.8802 41.6276 37.2556 41.2751 37.5808C41.0028 37.2855 40.6419 37.0868 40.2468 37.0146C39.8516 36.9425 39.4438 37.0007 39.0847 37.1807C38.7256 37.3607 38.4348 37.6525 38.2561 38.0123C38.0775 38.372 38.0207 38.7801 38.0943 39.1749C37.49 39.3189 36.875 39.4129 36.2553 39.456C37.0685 37.8569 37.6663 36.1572 38.0329 34.4011C39.519 33.1478 40.8234 31.6939 41.9087 30.0811C42.1944 30.6618 42.4258 31.2678 42.5999 31.8912ZM42.1769 21.5371C42.5512 22.2315 42.7815 22.9943 42.8542 23.7798C42.9269 24.5654 42.8404 25.3575 42.5999 26.1088C42.4271 26.7332 42.1967 27.3402 41.9119 27.9221C40.8251 26.307 39.5188 24.8509 38.0308 23.5957C37.6672 21.8391 37.0755 20.1376 36.2708 18.5344C38.9631 18.7248 41.1103 19.7232 42.1759 21.5371H42.1769ZM33.2665 14.8667C33.2665 15.0249 33.2196 15.1796 33.1317 15.3111C33.0438 15.4427 32.9189 15.5452 32.7727 15.6058C32.6265 15.6663 32.4657 15.6822 32.3105 15.6513C32.1553 15.6204 32.0127 15.5442 31.9009 15.4324C31.789 15.3205 31.7128 15.1779 31.6819 15.0227C31.651 14.8676 31.6669 14.7067 31.7274 14.5605C31.788 14.4143 31.8905 14.2894 32.0221 14.2015C32.1536 14.1136 32.3083 14.0667 32.4665 14.0667C32.6787 14.0667 32.8822 14.151 33.0322 14.301C33.1823 14.451 33.2665 14.6545 33.2665 14.8667ZM28.9999 14.0667C29.572 14.0692 30.1394 14.1695 30.6777 14.3632C30.6284 14.5266 30.6022 14.696 30.5999 14.8667C30.5989 15.2087 30.6922 15.5444 30.8695 15.8368C31.0469 16.1293 31.3013 16.3672 31.605 16.5246C31.9087 16.6819 32.2499 16.7525 32.591 16.7287C32.9322 16.7048 33.2602 16.5874 33.5391 16.3893C33.8519 16.7385 34.1421 17.1072 34.4079 17.4933C32.5677 17.6018 30.7497 17.9504 28.9999 18.5301C27.2426 17.9478 25.4165 17.5989 23.5684 17.4923C25.0447 15.3536 26.938 14.0667 28.9999 14.0667ZM15.3999 26.1088C15.1599 25.3572 15.0741 24.565 15.1474 23.7795C15.2207 22.9939 15.4517 22.2313 15.8265 21.5371C16.8932 19.7189 19.0495 18.72 21.7513 18.5333C20.9348 20.1357 20.3348 21.8395 19.9673 23.6C18.4813 24.8533 17.1769 26.3072 16.0916 27.92C15.8056 27.3389 15.574 26.7326 15.3999 26.1088ZM15.3999 31.8912C15.5727 31.2668 15.803 30.6598 16.0879 30.0779C17.1732 31.6907 18.4776 33.1446 19.9636 34.3979C20.3294 36.1488 20.9247 37.8438 21.7343 39.4389C20.7285 39.3815 19.737 39.1743 18.7924 38.824C18.8391 38.6645 18.864 38.4995 18.8665 38.3333C18.8665 37.8383 18.6699 37.3635 18.3198 37.0134C17.9697 36.6633 17.4949 36.4667 16.9999 36.4667C16.6503 36.4678 16.3081 36.568 16.0132 36.7557C15.9471 36.6603 15.882 36.5643 15.8228 36.4629C15.4486 35.7685 15.2182 35.0057 15.1455 34.2202C15.0729 33.4346 15.1594 32.6425 15.3999 31.8912Z" fill="black"/>
</svg>
