<svg width="58" height="58" viewBox="0 0 58 58" fill="none" xmlns="http://www.w3.org/2000/svg">
<circle cx="29" cy="29" r="29" fill="#E3E3E3"/>
<path d="M28.9999 32.7333C29.7383 32.7333 30.4601 32.5143 31.074 32.1041C31.6879 31.6939 32.1665 31.1108 32.449 30.4286C32.7316 29.7464 32.8055 28.9958 32.6615 28.2716C32.5174 27.5474 32.1619 26.8822 31.6397 26.3601C31.1176 25.838 30.4524 25.4824 29.7282 25.3383C29.004 25.1943 28.2534 25.2682 27.5712 25.5508C26.889 25.8334 26.3059 26.3119 25.8957 26.9258C25.4855 27.5398 25.2665 28.2616 25.2665 28.9999C25.2677 29.9897 25.6614 30.9387 26.3613 31.6386C27.0611 32.3384 28.0101 32.7321 28.9999 32.7333ZM28.9999 26.3333C29.5273 26.3333 30.0429 26.4897 30.4814 26.7827C30.9199 27.0757 31.2617 27.4922 31.4636 27.9794C31.6654 28.4667 31.7182 29.0029 31.6153 29.5202C31.5124 30.0375 31.2584 30.5126 30.8855 30.8856C30.5126 31.2585 30.0374 31.5125 29.5201 31.6154C29.0028 31.7183 28.4667 31.6654 27.9794 31.4636C27.4921 31.2618 27.0756 30.92 26.7826 30.4815C26.4896 30.0429 26.3332 29.5274 26.3332 28.9999C26.3341 28.293 26.6153 27.6152 27.1152 27.1153C27.6151 26.6153 28.2929 26.3341 28.9999 26.3333Z" fill="black"/>
<path d="M25.5291 34.8312L26.1323 34.3986C26.4767 34.5821 26.838 34.7317 27.2112 34.8456L27.3307 35.5762C27.366 35.7948 27.4715 35.996 27.6314 36.1492C27.7912 36.3024 27.9967 36.3994 28.2166 36.4253C28.4768 36.4526 28.7383 36.4665 29 36.4669C29.2641 36.4664 29.5279 36.4524 29.7904 36.4248C30.009 36.3982 30.2129 36.3011 30.3714 36.1483C30.5299 35.9955 30.6343 35.7953 30.6688 35.5778L30.7888 34.8456C31.1621 34.7317 31.5234 34.5821 31.8678 34.3986L32.4704 34.8312C32.65 34.9606 32.8669 35.028 33.0882 35.0232C33.3096 35.0184 33.5233 34.9416 33.6971 34.8045C34.1057 34.4742 34.4785 34.1019 34.8091 33.6936C34.9449 33.5202 35.0206 33.3074 35.0246 33.0872C35.0287 32.867 34.9609 32.6515 34.8315 32.4733L34.3984 31.8706C34.5818 31.5262 34.7317 31.1648 34.8459 30.7917L35.5755 30.6722C35.7943 30.6374 35.9957 30.5321 36.1491 30.3723C36.3024 30.2125 36.3994 30.0069 36.4251 29.7869C36.4806 29.2657 36.4806 28.7401 36.4251 28.2189V28.2141C36.3989 27.995 36.3019 27.7905 36.1488 27.6316C35.9958 27.4726 35.7951 27.368 35.5771 27.3336L34.8464 27.2141C34.7322 26.8409 34.5824 26.4796 34.399 26.1352L34.8315 25.5336C34.9611 25.354 35.0287 25.1371 35.0238 24.9158C35.019 24.6944 34.9421 24.4806 34.8048 24.3069C34.6402 24.1023 34.4651 23.9065 34.28 23.7202C34.0936 23.534 33.8978 23.3574 33.6934 23.1912C33.52 23.0553 33.3072 22.9797 33.087 22.9756C32.8668 22.9716 32.6513 23.0394 32.4731 23.1688L31.8699 23.6013C31.5255 23.4179 31.1642 23.2682 30.791 23.1544L30.6715 22.4237C30.6363 22.2051 30.5307 22.0039 30.3709 21.8507C30.211 21.6975 30.0055 21.6006 29.7856 21.5746C29.2625 21.5181 28.7349 21.5181 28.2118 21.5746C27.9932 21.6012 27.7893 21.6983 27.6308 21.8511C27.4723 22.0039 27.3679 22.2041 27.3334 22.4216L27.2134 23.1538C26.8402 23.2676 26.4788 23.4173 26.1344 23.6008L25.5318 23.1682C25.3523 23.0385 25.1354 22.9709 24.914 22.9758C24.6926 22.9806 24.4788 23.0575 24.3051 23.1949C23.8955 23.5252 23.522 23.8979 23.191 24.3069C23.055 24.4803 22.9793 24.6933 22.9753 24.9135C22.9712 25.1338 23.0391 25.3494 23.1686 25.5277L23.6016 26.1304C23.4183 26.4748 23.2684 26.8361 23.1542 27.2093L22.4235 27.3288C22.2049 27.3638 22.0038 27.4692 21.8506 27.629C21.6974 27.7888 21.6007 27.9942 21.575 28.2141C21.5192 28.7369 21.5192 29.2641 21.575 29.7869C21.6013 30.0058 21.6982 30.2102 21.8512 30.369C22.0041 30.5278 22.2047 30.6324 22.4224 30.6669L23.1536 30.7869C23.2679 31.16 23.4177 31.5214 23.6011 31.8658L23.1686 32.4674C23.0391 32.647 22.9717 32.8639 22.9765 33.0852C22.9813 33.3066 23.0581 33.5203 23.1952 33.6941C23.5255 34.1037 23.8981 34.4773 24.3067 34.8088C24.4802 34.9451 24.6935 35.021 24.9142 35.0251C25.1348 35.0291 25.3507 34.961 25.5291 34.8312ZM24.056 33.0642L24.6678 32.2109C24.7284 32.126 24.7628 32.0251 24.7667 31.9208C24.7706 31.8166 24.7438 31.7134 24.6896 31.6242C24.4189 31.1807 24.2188 30.6978 24.0966 30.1928C24.0719 30.0909 24.0177 29.9987 23.9409 29.9274C23.8641 29.8562 23.768 29.8092 23.6646 29.7922L22.6315 29.6232C22.6107 29.4045 22.6 29.2008 22.6 29.0002C22.6 28.7997 22.6107 28.5933 22.6315 28.3778L23.6667 28.2088C23.7702 28.1919 23.8664 28.1449 23.9433 28.0737C24.0203 28.0024 24.0745 27.9101 24.0992 27.8082C24.2215 27.3032 24.4215 26.8202 24.6923 26.3768C24.7465 26.2876 24.7733 26.1844 24.7694 26.0801C24.7655 25.9759 24.7311 25.875 24.6704 25.7901L24.0587 24.9368C24.1995 24.7661 24.3371 24.6168 24.4774 24.4749C24.6176 24.333 24.7712 24.1949 24.9392 24.0562L25.7926 24.668C25.8775 24.7286 25.9784 24.763 26.0826 24.7669C26.1869 24.7708 26.29 24.744 26.3792 24.6898C26.8227 24.4194 27.3054 24.2193 27.8102 24.0968C27.912 24.0721 28.0043 24.0179 28.0755 23.9411C28.1467 23.8643 28.1938 23.7681 28.2107 23.6648L28.3803 22.6312C28.7942 22.5898 29.2112 22.5898 29.6251 22.6312L29.792 23.6669C29.809 23.7703 29.856 23.8664 29.9273 23.9432C29.9985 24.02 30.0908 24.0742 30.1926 24.0989C30.6973 24.2215 31.18 24.4215 31.6235 24.692C31.7127 24.7461 31.8158 24.7729 31.9201 24.769C32.0244 24.7651 32.1253 24.7307 32.2102 24.6701L33.0635 24.0584C33.2336 24.1992 33.3835 24.3362 33.5254 24.477C33.6672 24.6178 33.8054 24.7709 33.944 24.9384L33.3323 25.7917C33.2717 25.8766 33.2373 25.9775 33.2334 26.0817C33.2295 26.186 33.2563 26.2892 33.3104 26.3784C33.5812 26.8218 33.7813 27.3048 33.9035 27.8098C33.9283 27.9117 33.9825 28.004 34.0594 28.0753C34.1363 28.1465 34.2326 28.1935 34.336 28.2104L35.3686 28.3794C35.3894 28.597 35.4 28.8013 35.4 29.0018C35.4 29.2024 35.3894 29.4088 35.3686 29.6242L34.3334 29.7917C34.23 29.8086 34.1339 29.8557 34.0571 29.9269C33.9802 29.9981 33.9261 30.0904 33.9014 30.1922C33.7792 30.6973 33.5791 31.1802 33.3083 31.6237C33.2542 31.7129 33.2274 31.816 33.2313 31.9203C33.2351 32.0246 33.2695 32.1254 33.3302 32.2104L33.9419 33.0637C33.8016 33.2333 33.6646 33.3837 33.5232 33.5256C33.3819 33.6674 33.2294 33.8056 33.0614 33.9442L32.208 33.3325C32.1233 33.2714 32.0224 33.2367 31.918 33.2328C31.8136 33.2289 31.7104 33.256 31.6214 33.3106C31.1779 33.5811 30.6952 33.7811 30.1904 33.9037C30.0886 33.9284 29.9964 33.9825 29.9251 34.0594C29.8539 34.1362 29.8069 34.2323 29.7899 34.3357L29.6203 35.3693C29.2064 35.4109 28.7894 35.4109 28.3755 35.3693L28.208 34.3336C28.1911 34.2302 28.1441 34.1341 28.0728 34.0572C28.0016 33.9804 27.9093 33.9263 27.8075 33.9016C27.3028 33.779 26.8201 33.5789 26.3766 33.3085C26.2875 33.2539 26.1843 33.2268 26.0799 33.2307C25.9756 33.2346 25.8746 33.2693 25.7899 33.3304L24.9366 33.9421C24.7664 33.8013 24.6166 33.6642 24.4747 33.5234C24.3328 33.3826 24.1936 33.2306 24.056 33.0642Z" fill="black"/>
<path d="M14.9034 37C15.0225 37.2003 15.1541 37.3929 15.2975 37.5765C15.1232 37.9625 15.086 38.3966 15.1922 38.8066C15.2984 39.2166 15.5416 39.5781 15.8814 39.8309C16.2212 40.0837 16.6373 40.2128 17.0605 40.1967C17.4838 40.1806 17.8888 40.0203 18.2085 39.7424C19.5338 40.2645 20.9441 40.5377 22.3685 40.5483C24.0933 43.3035 26.4293 45 28.9999 45C31.5706 45 33.9119 43.2997 35.6373 40.5413C36.6305 40.5259 37.6184 40.3936 38.5807 40.1472C38.8518 40.4447 39.2125 40.6456 39.6081 40.7197C40.0036 40.7937 40.4126 40.7368 40.7729 40.5576C41.1332 40.3783 41.4253 40.0865 41.6049 39.7263C41.7844 39.3661 41.8417 38.9572 41.7679 38.5616C42.297 38.1226 42.7462 37.5956 43.0959 37.0037C43.5429 36.188 43.8205 35.2904 43.9121 34.3648C44.0038 33.4392 43.9076 32.5046 43.6293 31.6171C43.375 30.7052 43.0133 29.8267 42.5519 29C43.0131 28.1745 43.3747 27.2973 43.6293 26.3867C43.9076 25.4991 44.0038 24.5645 43.9121 23.6389C43.8205 22.7133 43.5429 21.8157 43.0959 21C41.7701 18.7451 39.0319 17.5691 35.6671 17.48C35.2438 16.7871 34.7533 16.1375 34.2026 15.5408C34.2879 15.3262 34.3323 15.0976 34.3333 14.8667C34.3333 14.3716 34.1366 13.8968 33.7865 13.5467C33.4365 13.1967 32.9617 13 32.4666 13C32.0248 13.0018 31.5983 13.1619 31.2645 13.4512C30.545 13.1587 29.7766 13.0055 28.9999 13C26.4207 13 24.0778 14.7067 22.3514 17.4757C18.9781 17.5605 16.2325 18.7371 14.9039 20.9957C14.457 21.8115 14.1794 22.709 14.0878 23.6347C13.9961 24.5603 14.0923 25.4949 14.3706 26.3824C14.6249 27.2945 14.9865 28.1732 15.4479 29C14.9868 29.8255 14.6252 30.7027 14.3706 31.6133C14.0921 32.5008 13.9958 33.4354 14.0873 34.361C14.1789 35.2867 14.4564 36.1843 14.9034 37ZM16.1999 38.3333C16.1999 38.1751 16.2469 38.0204 16.3348 37.8889C16.4227 37.7573 16.5476 37.6548 16.6938 37.5942C16.84 37.5337 17.0008 37.5178 17.156 37.5487C17.3112 37.5796 17.4537 37.6558 17.5656 37.7676C17.6775 37.8795 17.7537 38.0221 17.7846 38.1773C17.8154 38.3324 17.7996 38.4933 17.739 38.6395C17.6785 38.7857 17.576 38.9106 17.4444 38.9985C17.3128 39.0864 17.1582 39.1333 16.9999 39.1333C16.7878 39.1333 16.5843 39.049 16.4343 38.899C16.2842 38.749 16.1999 38.5455 16.1999 38.3333ZM20.4666 29C20.4644 27.3841 20.6177 25.7717 20.9242 24.1851C22.0874 23.2193 23.3338 22.3585 24.649 21.6128C26.0357 20.8242 27.4922 20.1652 28.9999 19.6443C30.5074 20.1653 31.9636 20.8244 33.3498 21.6133C34.6627 22.3574 35.9071 23.2164 37.0682 24.1803C37.3789 25.768 37.5346 27.3822 37.5333 29C37.5355 30.6159 37.3822 32.2283 37.0757 33.8149C35.9125 34.7807 34.666 35.6415 33.3509 36.3872C31.9614 37.1752 30.5009 37.8309 28.9887 38.3456C27.4857 37.8274 26.0337 37.1717 24.6511 36.3867C23.3359 35.6414 22.0894 34.7807 20.9263 33.8149C20.6191 32.2284 20.4651 30.616 20.4666 29ZM19.6597 32.6837C18.5068 31.5912 17.5015 30.3528 16.6693 29C17.502 27.6473 18.5077 26.4089 19.6607 25.3163C19.3144 27.7599 19.3144 30.2401 19.6607 32.6837H19.6597ZM22.937 18.5035C24.4208 18.5397 25.895 18.7526 27.3285 19.1376C25.1851 20.0018 23.1626 21.1398 21.3114 22.5232C21.6884 21.1222 22.2346 19.7723 22.9381 18.5035H22.937ZM36.6693 22.5109C34.8228 21.1329 32.8061 19.9991 30.6693 19.1376C32.0968 18.7541 33.5649 18.5414 35.0426 18.504C35.7454 19.7688 36.292 21.1143 36.6703 22.5109H36.6693ZM38.3333 25.3115C39.4887 26.4052 40.4964 27.6452 41.3306 29C40.4978 30.3527 39.4922 31.5911 38.3391 32.6837C38.5125 31.4635 38.5997 30.2325 38.5999 29C38.5981 27.7657 38.509 26.5332 38.3333 25.3115ZM35.0687 39.4837C33.5862 39.4505 32.113 39.24 30.6805 38.8565C31.7781 38.4126 32.8456 37.8976 33.8762 37.3147C34.8507 36.7614 35.7897 36.1476 36.6874 35.4768C36.3121 36.8731 35.7686 38.2186 35.0687 39.4837ZM24.1237 37.3147C25.1515 37.8951 26.2161 38.4077 27.3109 38.8491C25.8779 39.2278 24.4054 39.4363 22.9237 39.4704C22.2277 38.209 21.6867 36.8681 21.3125 35.4768C22.2102 36.1476 23.1491 36.7614 24.1237 37.3147ZM28.9999 43.9333C26.9434 43.9333 25.0533 42.6533 23.5797 40.5243C25.4282 40.4116 27.2539 40.056 29.0095 39.4667C30.7612 40.0519 32.5817 40.406 34.425 40.52C32.9493 42.6533 31.0586 43.9333 28.9999 43.9333ZM39.9333 39.6667C39.775 39.6667 39.6204 39.6197 39.4888 39.5318C39.3573 39.4439 39.2547 39.319 39.1942 39.1728C39.1336 39.0266 39.1178 38.8658 39.1486 38.7106C39.1795 38.5554 39.2557 38.4129 39.3676 38.301C39.4795 38.1891 39.622 38.1129 39.7772 38.082C39.9324 38.0512 40.0932 38.067 40.2394 38.1276C40.3856 38.1881 40.5105 38.2907 40.5984 38.4222C40.6864 38.5538 40.7333 38.7084 40.7333 38.8667C40.7333 39.0788 40.649 39.2823 40.499 39.4324C40.3489 39.5824 40.1454 39.6667 39.9333 39.6667ZM42.5999 31.8912C42.8402 32.6433 42.9263 33.4362 42.853 34.2224C42.7796 35.0086 42.5485 35.7719 42.1733 36.4667C41.9303 36.8802 41.6277 37.2556 41.2751 37.5808C41.0029 37.2855 40.6419 37.0868 40.2468 37.0146C39.8517 36.9425 39.4438 37.0007 39.0848 37.1807C38.7257 37.3607 38.4349 37.6525 38.2562 38.0123C38.0775 38.372 38.0207 38.7801 38.0943 39.1749C37.4901 39.3189 36.8751 39.4129 36.2554 39.456C37.0686 37.8569 37.6663 36.1572 38.033 34.4011C39.519 33.1478 40.8235 31.6939 41.9087 30.0811C42.1945 30.6618 42.4259 31.2678 42.5999 31.8912ZM42.177 21.5371C42.5513 22.2315 42.7816 22.9943 42.8543 23.7798C42.9269 24.5654 42.8404 25.3575 42.5999 26.1088C42.4271 26.7332 42.1968 27.3402 41.9119 27.9221C40.8251 26.307 39.5189 24.8509 38.0309 23.5957C37.6672 21.8391 37.0755 20.1376 36.2709 18.5344C38.9631 18.7248 41.1103 19.7232 42.1759 21.5371H42.177ZM33.2666 14.8667C33.2666 15.0249 33.2197 15.1796 33.1318 15.3111C33.0439 15.4427 32.9189 15.5452 32.7728 15.6058C32.6266 15.6663 32.4657 15.6822 32.3105 15.6513C32.1553 15.6204 32.0128 15.5442 31.9009 15.4324C31.789 15.3205 31.7128 15.1779 31.682 15.0227C31.6511 14.8676 31.667 14.7067 31.7275 14.5605C31.7881 14.4143 31.8906 14.2894 32.0221 14.2015C32.1537 14.1136 32.3084 14.0667 32.4666 14.0667C32.6788 14.0667 32.8823 14.151 33.0323 14.301C33.1823 14.451 33.2666 14.6545 33.2666 14.8667ZM28.9999 14.0667C29.572 14.0692 30.1395 14.1695 30.6778 14.3632C30.6285 14.5266 30.6023 14.696 30.5999 14.8667C30.599 15.2087 30.6923 15.5444 30.8696 15.8368C31.0469 16.1293 31.3014 16.3672 31.6051 16.5246C31.9088 16.6819 32.2499 16.7525 32.5911 16.7287C32.9323 16.7048 33.2603 16.5874 33.5391 16.3893C33.8519 16.7385 34.1421 17.1072 34.4079 17.4933C32.5678 17.6018 30.7497 17.9504 28.9999 18.5301C27.2427 17.9478 25.4166 17.5989 23.5685 17.4923C25.0447 15.3536 26.9381 14.0667 28.9999 14.0667ZM15.3999 26.1088C15.16 25.3572 15.0741 24.565 15.1474 23.7795C15.2207 22.9939 15.4517 22.2313 15.8266 21.5371C16.8933 19.7189 19.0495 18.72 21.7514 18.5333C20.9348 20.1357 20.3349 21.8395 19.9674 23.6C18.4814 24.8533 17.177 26.3072 16.0917 27.92C15.8057 27.3389 15.5741 26.7326 15.3999 26.1088ZM15.3999 31.8912C15.5728 31.2668 15.8031 30.6598 16.0879 30.0779C17.1732 31.6907 18.4776 33.1446 19.9637 34.3979C20.3294 36.1488 20.9248 37.8438 21.7343 39.4389C20.7286 39.3815 19.737 39.1743 18.7925 38.824C18.8391 38.6645 18.8641 38.4995 18.8666 38.3333C18.8666 37.8383 18.6699 37.3635 18.3199 37.0134C17.9698 36.6633 17.495 36.4667 16.9999 36.4667C16.6503 36.4678 16.3082 36.568 16.0133 36.7557C15.9471 36.6603 15.8821 36.5643 15.8229 36.4629C15.4486 35.7685 15.2183 35.0057 15.1456 34.2202C15.0729 33.4346 15.1594 32.6425 15.3999 31.8912Z" fill="black"/>
</svg>
