<svg width="20" height="20" viewBox="0 0 20 20" fill="none" xmlns="http://www.w3.org/2000/svg">
<path d="M15.3917 14.0249L15.7167 16.6582C15.8 17.3498 15.0584 17.8331 14.4667 17.4748L10.975 15.3998C10.5917 15.3998 10.2167 15.3748 9.85004 15.3248C10.4667 14.5998 10.8334 13.6832 10.8334 12.6915C10.8334 10.3248 8.78337 8.40819 6.25004 8.40819C5.28337 8.40819 4.39171 8.68317 3.65004 9.1665C3.62504 8.95817 3.6167 8.74983 3.6167 8.53316C3.6167 4.7415 6.90837 1.6665 10.975 1.6665C15.0417 1.6665 18.3334 4.7415 18.3334 8.53316C18.3334 10.7832 17.175 12.7749 15.3917 14.0249Z" stroke="#A0A3BD" stroke-width="1.25" stroke-linecap="round" stroke-linejoin="round"/>
<path d="M10.8333 12.6915C10.8333 13.6832 10.4666 14.5999 9.84996 15.3249C9.02496 16.3249 7.71663 16.9665 6.24996 16.9665L4.07496 18.2582C3.70829 18.4832 3.24162 18.1748 3.29162 17.7498L3.49996 16.1082C2.38329 15.3332 1.66663 14.0915 1.66663 12.6915C1.66663 11.2248 2.44996 9.93318 3.64996 9.16651C4.39163 8.68318 5.28329 8.4082 6.24996 8.4082C8.78329 8.4082 10.8333 10.3248 10.8333 12.6915Z" stroke="#A0A3BD" stroke-width="1.25" stroke-linecap="round" stroke-linejoin="round"/>
</svg>
