<svg width="20" height="20" viewBox="0 0 20 20" fill="none" xmlns="http://www.w3.org/2000/svg">
<path d="M15.3917 14.0249L15.7167 16.6582C15.8 17.3498 15.0583 17.8331 14.4667 17.4748L10.975 15.3998C10.5917 15.3998 10.2167 15.3748 9.85 15.3248C10.4667 14.5998 10.8333 13.6832 10.8333 12.6915C10.8333 10.3248 8.78333 8.40819 6.25 8.40819C5.28333 8.40819 4.39167 8.68317 3.65 9.1665C3.625 8.95817 3.61666 8.74983 3.61666 8.53316C3.61666 4.7415 6.90833 1.6665 10.975 1.6665C15.0417 1.6665 18.3333 4.7415 18.3333 8.53316C18.3333 10.7832 17.175 12.7749 15.3917 14.0249Z" stroke="white" stroke-width="1.25" stroke-linecap="round" stroke-linejoin="round"/>
<path d="M10.8333 12.6915C10.8333 13.6832 10.4667 14.5999 9.85 15.3249C9.025 16.3249 7.71666 16.9665 6.25 16.9665L4.075 18.2582C3.70833 18.4832 3.24166 18.1748 3.29166 17.7498L3.49999 16.1082C2.38333 15.3332 1.66666 14.0915 1.66666 12.6915C1.66666 11.2248 2.45 9.93318 3.65 9.16651C4.39167 8.68318 5.28333 8.4082 6.25 8.4082C8.78333 8.4082 10.8333 10.3248 10.8333 12.6915Z" stroke="white" stroke-width="1.25" stroke-linecap="round" stroke-linejoin="round"/>
</svg>
