<svg width="30" height="30" viewBox="0 0 30 30" fill="none" xmlns="http://www.w3.org/2000/svg">
<path d="M25.0001 10.313V22.5005C25.0001 26.2505 22.7626 27.5005 20.0001 27.5005H10.0001C7.23756 27.5005 5.00006 26.2505 5.00006 22.5005V10.313C5.00006 6.25049 7.23756 5.31299 10.0001 5.31299C10.0001 6.08799 10.3125 6.78798 10.825 7.30048C11.3375 7.81298 12.0376 8.12549 12.8126 8.12549H17.1876C18.7376 8.12549 20.0001 6.86299 20.0001 5.31299C22.7626 5.31299 25.0001 6.25049 25.0001 10.313Z" stroke="#7D7D7D" stroke-width="1.875" stroke-linecap="round" stroke-linejoin="round"/>
<path d="M19.9999 5.31299C19.9999 6.86299 18.7374 8.12549 17.1874 8.12549H12.8124C12.0374 8.12549 11.3374 7.81298 10.8249 7.30048C10.3124 6.78798 9.99994 6.08799 9.99994 5.31299C9.99994 3.76299 11.2624 2.50049 12.8124 2.50049H17.1874C17.9624 2.50049 18.6625 2.81299 19.175 3.32549C19.6875 3.83799 19.9999 4.53799 19.9999 5.31299Z" stroke="#7D7D7D" stroke-width="1.875" stroke-linecap="round" stroke-linejoin="round"/>
<path d="M9.99994 16.2495H14.9999" stroke="#7D7D7D" stroke-width="1.875" stroke-linecap="round" stroke-linejoin="round"/>
<path d="M9.99994 21.2505H19.9999" stroke="#7D7D7D" stroke-width="1.875" stroke-linecap="round" stroke-linejoin="round"/>
</svg>
