<svg width="9" height="10" viewBox="0 0 9 10" fill="none" xmlns="http://www.w3.org/2000/svg">
<path d="M1.54092 6.09662C0.950776 5.72492 0.655706 5.53908 0.558972 5.2992C0.481563 5.10724 0.481563 4.89276 0.558972 4.7008C0.655706 4.46092 0.950776 4.27508 1.54092 3.90338L6.06312 1.05514C6.72488 0.638332 7.05577 0.42993 7.32897 0.457098C7.54703 0.478783 7.74665 0.58897 7.88122 0.761927C8.04981 0.978621 8.04981 1.36966 8.04981 2.15175L8.04981 7.84825C8.04981 8.63034 8.04981 9.02138 7.88122 9.23807C7.74665 9.41103 7.54703 9.52122 7.32897 9.5429C7.05577 9.57007 6.72488 9.36167 6.06312 8.94486L1.54092 6.09662Z" fill="white"/>
</svg>
