<svg width="20" height="20" viewBox="0 0 20 20" fill="none" xmlns="http://www.w3.org/2000/svg">
<path d="M7.63334 9.05841C7.55 9.05008 7.45 9.05008 7.35834 9.05841C5.375 8.99175 3.8 7.36675 3.8 5.36675C3.8 3.32508 5.45 1.66675 7.5 1.66675C9.54167 1.66675 11.2 3.32508 11.2 5.36675C11.1917 7.36675 9.61667 8.99175 7.63334 9.05841Z" stroke="white" stroke-width="1.5" stroke-linecap="round" stroke-linejoin="round"/>
<path d="M13.675 3.33325C15.2917 3.33325 16.5917 4.64159 16.5917 6.24992C16.5917 7.82492 15.3417 9.10825 13.7833 9.16659C13.7167 9.15825 13.6417 9.15825 13.5667 9.16659" stroke="white" stroke-width="1.5" stroke-linecap="round" stroke-linejoin="round"/>
<path d="M3.46667 12.1333C1.45 13.4833 1.45 15.6833 3.46667 17.0249C5.75834 18.5583 9.51667 18.5583 11.8083 17.0249C13.825 15.6749 13.825 13.4749 11.8083 12.1333C9.525 10.6083 5.76667 10.6083 3.46667 12.1333Z" stroke="white" stroke-width="1.5" stroke-linecap="round" stroke-linejoin="round"/>
<path d="M15.2833 16.6667C15.8833 16.5417 16.45 16.3001 16.9167 15.9417C18.2167 14.9667 18.2167 13.3584 16.9167 12.3834C16.4583 12.0334 15.9 11.8001 15.3083 11.6667" stroke="white" stroke-width="1.5" stroke-linecap="round" stroke-linejoin="round"/>
</svg>
