<svg width="16" height="20" viewBox="0 0 16 20" fill="none" xmlns="http://www.w3.org/2000/svg">
<path d="M4.66667 7.50016C4.20643 7.50016 3.83333 7.87326 3.83333 8.3335C3.83333 8.79373 4.20643 9.16683 4.66667 9.16683H11.3333C11.7936 9.16683 12.1667 8.79373 12.1667 8.3335C12.1667 7.87326 11.7936 7.50016 11.3333 7.50016H4.66667Z" fill="white"/>
<path d="M4.66667 10.8335C4.20643 10.8335 3.83333 11.2066 3.83333 11.6668C3.83333 12.1271 4.20643 12.5002 4.66667 12.5002H8C8.46024 12.5002 8.83333 12.1271 8.83333 11.6668C8.83333 11.2066 8.46024 10.8335 8 10.8335H4.66667Z" fill="white"/>
<path d="M4.66667 14.1668C4.20643 14.1668 3.83333 14.5399 3.83333 15.0002C3.83333 15.4604 4.20643 15.8335 4.66667 15.8335H11.3333C11.7936 15.8335 12.1667 15.4604 12.1667 15.0002C12.1667 14.5399 11.7936 14.1668 11.3333 14.1668H4.66667Z" fill="white"/>
<path fill-rule="evenodd" clip-rule="evenodd" d="M15.399 4.28148C15.3319 4.11918 15.2335 3.97172 15.1093 3.84757L12.4863 1.22461C12.2365 0.974488 11.8976 0.833808 11.5441 0.833496H1.83333C1.47971 0.833496 1.14057 0.973972 0.890524 1.22402C0.640476 1.47407 0.5 1.81321 0.5 2.16683V17.8335C0.5 18.0086 0.534488 18.182 0.601494 18.3437C0.668499 18.5055 0.766711 18.6525 0.890524 18.7763C1.01433 18.9001 1.16132 18.9983 1.32309 19.0653C1.48486 19.1323 1.65824 19.1668 1.83333 19.1668H14.1667C14.3418 19.1668 14.5151 19.1323 14.6769 19.0653C14.8387 18.9983 14.9857 18.9001 15.1095 18.7763C15.2333 18.6525 15.3315 18.5055 15.3985 18.3437C15.4655 18.182 15.5 18.0086 15.5 17.8335V4.79209L14.6667 4.79183L15.5 4.79387L15.5 4.79209C15.5002 4.61691 15.4659 4.4434 15.399 4.28148ZM10.5 4.5835C10.5 5.27385 11.0596 5.8335 11.75 5.8335H13.8333V17.5002H2.16667V2.50016H10.5V4.5835ZM13.0715 4.16683L12.1667 3.26201V4.16683H13.0715Z" fill="white"/>
</svg>
