<svg width="16" height="20" viewBox="0 0 16 20" fill="none" xmlns="http://www.w3.org/2000/svg">
<path d="M4.66667 7.49967C4.20643 7.49967 3.83333 7.87277 3.83333 8.33301C3.83333 8.79325 4.20643 9.16634 4.66667 9.16634H11.3333C11.7936 9.16634 12.1667 8.79325 12.1667 8.33301C12.1667 7.87277 11.7936 7.49967 11.3333 7.49967H4.66667Z" fill="#A0A3BD"/>
<path d="M4.66667 10.833C4.20643 10.833 3.83333 11.2061 3.83333 11.6663C3.83333 12.1266 4.20643 12.4997 4.66667 12.4997H8C8.46024 12.4997 8.83333 12.1266 8.83333 11.6663C8.83333 11.2061 8.46024 10.833 8 10.833H4.66667Z" fill="#A0A3BD"/>
<path d="M4.66667 14.1663C4.20643 14.1663 3.83333 14.5394 3.83333 14.9997C3.83333 15.4599 4.20643 15.833 4.66667 15.833H11.3333C11.7936 15.833 12.1667 15.4599 12.1667 14.9997C12.1667 14.5394 11.7936 14.1663 11.3333 14.1663H4.66667Z" fill="#A0A3BD"/>
<path fill-rule="evenodd" clip-rule="evenodd" d="M15.399 4.281C15.3319 4.11869 15.2335 3.97123 15.1093 3.84709L12.4863 1.22412C12.2365 0.974 11.8976 0.833319 11.5441 0.833008H1.83333C1.47971 0.833008 1.14057 0.973484 0.890524 1.22353C0.640476 1.47358 0.5 1.81272 0.5 2.16634V17.833C0.5 18.0081 0.534488 18.1815 0.601494 18.3433C0.668499 18.505 0.766711 18.652 0.890524 18.7758C1.01433 18.8996 1.16132 18.9978 1.32309 19.0648C1.48486 19.1319 1.65824 19.1663 1.83333 19.1663H14.1667C14.3418 19.1663 14.5151 19.1319 14.6769 19.0648C14.8387 18.9978 14.9857 18.8996 15.1095 18.7758C15.2333 18.652 15.3315 18.505 15.3985 18.3433C15.4655 18.1815 15.5 18.0081 15.5 17.833V4.7916L14.6667 4.79134L15.5 4.79338L15.5 4.7916C15.5002 4.61642 15.4659 4.44291 15.399 4.281ZM10.5 4.58301C10.5 5.27336 11.0596 5.83301 11.75 5.83301H13.8333V17.4997H2.16667V2.49967H10.5V4.58301ZM13.0715 4.16634L12.1667 3.26152V4.16634H13.0715Z" fill="#A0A3BD"/>
</svg>
