<svg width="19" height="18" viewBox="0 0 19 18" fill="none" xmlns="http://www.w3.org/2000/svg">
<path fill-rule="evenodd" clip-rule="evenodd" d="M0.732091 0.577834C0.876617 0.486117 1.05802 0.474707 1.2129 0.547592L18.2129 8.54759C18.3881 8.63006 18.5 8.80632 18.5 9C18.5 9.19368 18.3881 9.36994 18.2129 9.45241L1.2129 17.4524C1.05802 17.5253 0.876617 17.5139 0.732091 17.4222C0.587564 17.3305 0.5 17.1712 0.5 17L0.5 11.8264C0.5 10.5334 1.48597 9.45376 2.77366 9.3367L6.47732 9L2.77366 8.66331C1.48596 8.54624 0.5 7.46658 0.5 6.17357L0.5 1C0.5 0.828828 0.587564 0.669552 0.732091 0.577834ZM1.5 1.78789V6.17357C1.5 6.94938 2.09158 7.59717 2.8642 7.66741L12.0453 8.50205C12.3028 8.52547 12.5 8.7414 12.5 9C12.5 9.2586 12.3028 9.47453 12.0453 9.49795L2.8642 10.3326C2.09158 10.4028 1.5 11.0506 1.5 11.8264V16.2121L16.8257 9L1.5 1.78789Z" fill="black"/>
</svg>
