<svg width="20" height="20" viewBox="0 0 20 20" fill="none" xmlns="http://www.w3.org/2000/svg">
<path d="M7.5 18.3332H12.5C16.6667 18.3332 18.3333 16.6665 18.3333 12.4998V7.49984C18.3333 3.33317 16.6667 1.6665 12.5 1.6665H7.5C3.33333 1.6665 1.66666 3.33317 1.66666 7.49984V12.4998C1.66666 16.6665 3.33333 18.3332 7.5 18.3332Z" stroke="#A0A3BD" stroke-width="1.25" stroke-linecap="round" stroke-linejoin="round"/>
<path d="M7.58331 10.0002V8.7669C7.58331 7.17524 8.70831 6.53357 10.0833 7.32524L11.15 7.9419L12.2166 8.55857C13.5916 9.35024 13.5916 10.6502 12.2166 11.4419L11.15 12.0586L10.0833 12.6752C8.70831 13.4669 7.58331 12.8169 7.58331 11.2336V10.0002Z" stroke="#A0A3BD" stroke-width="1.25" stroke-miterlimit="10" stroke-linecap="round" stroke-linejoin="round"/>
</svg>
