<svg width="20" height="20" viewBox="0 0 20 20" fill="none" xmlns="http://www.w3.org/2000/svg">
<path d="M7.50008 18.3337H12.5001C16.6667 18.3337 18.3334 16.667 18.3334 12.5003V7.50033C18.3334 3.33366 16.6667 1.66699 12.5001 1.66699H7.50008C3.33341 1.66699 1.66675 3.33366 1.66675 7.50033V12.5003C1.66675 16.667 3.33341 18.3337 7.50008 18.3337Z" stroke="#262338" stroke-width="1.25" stroke-linecap="round" stroke-linejoin="round"/>
<path d="M7.58325 10.0002V8.7669C7.58325 7.17524 8.70825 6.53357 10.0833 7.32524L11.1499 7.9419L12.2166 8.55857C13.5916 9.35024 13.5916 10.6502 12.2166 11.4419L11.1499 12.0586L10.0833 12.6752C8.70825 13.4669 7.58325 12.8169 7.58325 11.2336V10.0002Z" stroke="#262338" stroke-width="1.25" stroke-miterlimit="10" stroke-linecap="round" stroke-linejoin="round"/>
</svg>
