<svg width="20" height="20" viewBox="0 0 20 20" fill="none" xmlns="http://www.w3.org/2000/svg">
<g clip-path="url(#clip0_273_2055)">
<path d="M5.81341 3.35867L4.86173 2.40699C4.71368 2.25898 4.49798 2.20113 4.29575 2.25535L2.99575 2.60367C2.79357 2.65785 2.6356 2.81578 2.58146 3.01796L2.23314 4.31796C2.17896 4.52015 2.23677 4.73593 2.38478 4.88394L3.33642 5.83566C3.48419 5.98343 3.69974 6.0416 3.90239 5.9873L5.20243 5.63898C5.40462 5.5848 5.56259 5.42687 5.61673 5.22468L5.96505 3.92468C6.01923 3.72249 5.96142 3.50671 5.81341 3.35867ZM4.57232 4.59457L3.92587 4.76777L3.45267 4.29457L3.62583 3.64812L4.27228 3.47488L4.74552 3.94812L4.57232 4.59457Z" fill="#A0A3BD"/>
<path d="M17.6694 15.2151L16.7177 14.2634C16.5698 14.1154 16.3539 14.0576 16.1518 14.1118L14.8518 14.4601C14.6496 14.5143 14.4916 14.6722 14.4375 14.8744L14.0891 16.1744C14.035 16.3766 14.0928 16.5923 14.2408 16.7404L15.1925 17.692C15.34 17.8395 15.5555 17.8981 15.7585 17.8437L17.0585 17.4954C17.2607 17.4412 17.4186 17.2832 17.4728 17.0811L17.8211 15.7811C17.8753 15.5788 17.8174 15.3631 17.6694 15.2151ZM16.4284 16.4509L15.7819 16.6242L15.3087 16.1509L15.4819 15.5045L16.1284 15.3313L16.6016 15.8045L16.4284 16.4509Z" fill="#A0A3BD"/>
<path d="M15.8983 11.7967C15.6674 11.7967 15.4348 11.8201 15.1838 11.8692L13.3144 9.99981L15.1753 8.13891C16.4871 8.37208 17.8486 7.95161 18.7986 7.00153C20.0258 5.7743 20.348 3.89809 19.6002 2.33278C19.5182 2.16114 19.358 2.04 19.1705 2.00786C18.983 1.97563 18.7916 2.03653 18.6571 2.17106L17.1413 3.68692C16.9128 3.91543 16.5411 3.9154 16.3126 3.68692C16.0841 3.45844 16.0841 3.08672 16.3126 2.85825L17.8285 1.34235C17.963 1.20786 18.0239 1.01645 17.9917 0.828989C17.9596 0.641528 17.8384 0.481332 17.6668 0.39934C16.1015 -0.348472 14.2252 -0.0263629 12.998 1.2009C12.0479 2.15098 11.6275 3.5127 11.8606 4.82422L9.99972 6.68516L8.13879 4.82422C8.37191 3.5127 7.95152 2.15094 7.00144 1.2009C5.40226 -0.398316 2.80004 -0.398316 1.2009 1.2009C-0.398362 2.80012 -0.398362 5.40235 1.2009 7.00153C2.15097 7.95161 3.51261 8.37208 4.82414 8.13887L6.68508 9.99977L4.82418 11.8607C3.51258 11.6276 2.15086 12.048 1.20086 12.9981C-0.0264087 14.2253 -0.348518 16.1015 0.399294 17.6668C0.481287 17.8385 0.641482 17.9596 0.828943 17.9918C1.01636 18.0239 1.20781 17.9631 1.3423 17.8286L2.85816 16.3127C3.08664 16.0842 3.45836 16.0842 3.68683 16.3127C3.91531 16.5412 3.91527 16.9129 3.68683 17.1414L2.17097 18.6572C2.03648 18.7917 1.97562 18.9831 2.00777 19.1706C2.03992 19.3581 2.16109 19.5182 2.33269 19.6002C3.90457 20.3512 5.77949 20.0206 7.00144 18.7986C7.95152 17.8486 8.37191 16.4868 8.13883 15.1753L9.99972 13.3144L11.8691 15.1838C11.82 15.4348 11.7967 15.6674 11.7967 15.8983C11.7967 18.1599 13.6367 19.9999 15.8983 19.9999C18.16 19.9999 20 18.1599 20 15.8983C20 13.6366 18.16 11.7967 15.8983 11.7967ZM5.42586 7.08333C5.27797 6.93543 5.06242 6.87758 4.86035 6.93153C3.85152 7.20094 2.76687 6.91028 2.02953 6.17293C0.887185 5.03059 0.887185 3.17192 2.02953 2.02961C3.17183 0.887309 5.03051 0.887309 6.17281 2.02961C6.91011 2.76692 7.20086 3.85168 6.9314 4.86051C6.87746 5.06258 6.93531 5.27809 7.0832 5.42602L9.17105 7.51383L7.51371 9.17118L5.42586 7.08333ZM9.58551 12.0715L9.58543 12.0715L9.58539 12.0715L7.0832 14.5737C6.93531 14.7216 6.87746 14.9371 6.9314 15.1392C7.20078 16.148 6.91011 17.2327 6.17281 17.9701C5.51008 18.6328 4.58261 18.926 3.68648 18.7991L4.51551 17.9701C5.2009 17.2847 5.2009 16.1695 4.51551 15.4841C3.83019 14.7988 2.71492 14.7987 2.02953 15.4841L1.20051 16.3132C1.07355 15.417 1.36687 14.4895 2.02953 13.8268C2.76687 13.0895 3.8516 12.7987 4.86043 13.0682C5.06261 13.1222 5.27801 13.0643 5.42593 12.9164L7.92801 10.4144L7.92812 10.4143L7.92824 10.4141L10.4141 7.92833L10.4141 7.92829L10.4142 7.92821L12.9163 5.4261C13.0642 5.27821 13.1221 5.0627 13.0681 4.86059C12.7987 3.85176 13.0894 2.76704 13.8267 2.02969C14.4894 1.367 15.4169 1.0736 16.313 1.20063L15.484 2.02969C14.7986 2.71504 14.7986 3.83028 15.484 4.51567C16.171 5.20266 17.283 5.20274 17.97 4.51567L18.7991 3.68661C18.926 4.58278 18.6327 5.51028 17.97 6.17297C17.2327 6.91028 16.1478 7.20102 15.1391 6.93157C14.937 6.87758 14.7215 6.93547 14.5736 7.08336L12.0715 9.5854L12.0714 9.58551L12.0713 9.58563L9.58551 12.0715ZM15.8983 18.8281C14.2828 18.8281 12.9685 17.5138 12.9685 15.8984C12.9685 15.6727 13.0037 15.4348 13.0795 15.1497C13.1331 14.9478 13.0752 14.7327 12.9275 14.585L10.8283 12.4858L12.4857 10.8285L14.5848 12.9276C14.7325 13.0753 14.9475 13.1332 15.1495 13.0796C15.4346 13.0039 15.6725 12.9686 15.8982 12.9686C17.5137 12.9686 18.828 14.2829 18.828 15.8984C18.828 17.5138 17.5138 18.8281 15.8983 18.8281Z" fill="#A0A3BD"/>
</g>
<defs>
<clipPath id="clip0_273_2055">
<rect width="20" height="20" fill="white"/>
</clipPath>
</defs>
</svg>
